<?xml version="1.0" encoding="utf-8"?>
<!-- Generator: Adobe Illustrator 19.0.0, SVG Export Plug-In . SVG Version: 6.00 Build 0)  -->
<svg version="1.1" id="Calque_1" xmlns="http://www.w3.org/2000/svg" xmlns:xlink="http://www.w3.org/1999/xlink" x="0px" y="0px"
	 viewBox="0 0 595.3 841.9" style="enable-background:new 0 0 595.3 841.9;" xml:space="preserve">
<style type="text/css">
	.st0{fill:#262626;}
	.st1{fill:#333333;}
	.st2{fill:none;}
	.st3{fill:#1A1A1A;}
	.st4{fill:#121212;}
	.st5{fill:#0A0A0A;}
</style>
<polygon id="XMLID_1_" class="st0" points="329.1,384 329.1,363.6 331.9,363.6 331.9,382.4 "/>
<polygon id="XMLID_3_" class="st1" points="331.9,382.4 331.9,363.6 348.3,363.6 348.2,391.8 "/>
<g id="XMLID_2_">
	<polygon id="XMLID_38_" class="st2" points="250.7,373 250.7,363.6 250.6,363.6 250.6,373 	"/>
	<polygon id="XMLID_39_" class="st2" points="250.6,413.9 250.6,448.1 250.6,413.9 	"/>
	<polygon id="XMLID_40_" class="st3" points="250.6,373 250.6,410.6 250.6,410.6 250.7,373 	"/>
	<polygon id="XMLID_41_" class="st3" points="247.7,408.9 247.7,371.3 234.3,363.6 234.3,401.1 	"/>
	<polygon id="XMLID_42_" class="st3" points="329.1,455.9 329.1,418.3 266.9,382.4 266.8,420 	"/>
	<polygon id="XMLID_43_" class="st3" points="348.2,429.4 348.3,467 364.5,476.3 364.5,438.7 	"/>
	<polygon id="XMLID_44_" class="st4" points="234.3,363.6 231.4,365.2 231.4,402.8 234.3,401.1 	"/>
	<polygon id="XMLID_45_" class="st5" points="348.3,470.3 361.6,478 364.5,476.3 348.3,467 	"/>
	<polygon id="XMLID_46_" class="st5" points="266.8,420 266.8,423.2 329.1,459.2 329.1,455.9 	"/>
	<polygon id="XMLID_47_" class="st5" points="234.3,401.1 231.4,402.8 247.7,412.2 247.7,408.9 	"/>
	<polygon id="XMLID_48_" class="st5" points="250.6,413.9 250.6,413.9 250.6,410.6 250.6,410.6 	"/>
	<polygon id="XMLID_49_" class="st1" points="250.6,448.1 266.8,457.5 266.8,423.2 250.6,413.9 	"/>
	<polygon id="XMLID_50_" class="st1" points="266.9,382.4 266.9,363.6 250.7,363.6 250.7,373 	"/>
	<polygon id="XMLID_51_" class="st1" points="250.6,410.6 266.8,420 266.9,382.4 250.7,373 	"/>
	<polygon id="XMLID_52_" class="st1" points="250.6,410.6 250.6,413.9 266.8,423.2 266.8,420 	"/>
	<polygon id="XMLID_53_" class="st0" points="250.6,373 250.6,363.6 247.8,363.6 247.7,371.3 	"/>
	<polygon id="XMLID_54_" class="st0" points="247.7,412.2 247.6,449.8 250.6,448.1 250.6,413.9 	"/>
	<polygon id="XMLID_55_" class="st0" points="247.7,371.3 247.7,408.9 250.6,410.6 250.6,373 	"/>
	<polygon id="XMLID_56_" class="st0" points="250.6,410.6 247.7,408.9 247.7,412.2 250.6,413.9 	"/>
	<polygon id="XMLID_57_" class="st1" points="331.9,460.8 331.9,478 348.3,478 348.3,470.3 	"/>
	<polygon id="XMLID_59_" class="st1" points="348.2,429.4 348.2,391.8 331.9,382.4 331.9,419.9 	"/>
	<polygon id="XMLID_60_" class="st1" points="331.9,457.5 348.3,467 348.2,429.4 331.9,419.9 	"/>
	<polygon id="XMLID_61_" class="st1" points="331.9,460.8 348.3,470.3 348.3,467 331.9,457.5 	"/>
	<polygon id="XMLID_63_" class="st0" points="331.9,460.8 329.1,459.2 329.1,478 331.9,478 	"/>
	<polygon id="XMLID_64_" class="st0" points="331.9,382.4 329.1,384 329.1,418.3 331.9,419.9 	"/>
	<polygon id="XMLID_65_" class="st0" points="331.9,457.5 331.9,419.9 329.1,418.3 329.1,455.9 	"/>
	<polygon id="XMLID_66_" class="st0" points="331.9,457.5 329.1,455.9 329.1,459.2 331.9,460.8 	"/>
</g>
<polygon id="XMLID_4_" class="st1" points="266.8,457.5 266.8,478 250.6,478 250.6,448.1 "/>
<polygon id="XMLID_6_" class="st0" points="250.6,448.1 250.6,478 247.6,478 247.6,449.8 "/>
</svg>
