<?xml version="1.0" encoding="utf-8"?>
<!-- Generator: Adobe Illustrator 19.0.0, SVG Export Plug-In . SVG Version: 6.00 Build 0)  -->
<svg version="1.1" id="Calque_1" xmlns="http://www.w3.org/2000/svg" xmlns:xlink="http://www.w3.org/1999/xlink" x="0px" y="0px"
	 viewBox="0 0 595.3 841.9" style="enable-background:new 0 0 595.3 841.9;" xml:space="preserve">
<style type="text/css">
	.st0{fill:#FFFFFF;stroke:#000000;stroke-miterlimit:10;}
	.st1{fill:#E6E6E6;}
	.st2{fill:#4D4D4D;}
	.st3{fill:#CCCCCC;}
	.st4{fill:#FFFFFF;}
	.st5{fill:none;}
	.st6{fill:#FFFFFF;stroke:#9D9D9C;stroke-width:0.5;stroke-miterlimit:10;}
	.st7{fill:none;stroke:#FFFFFF;stroke-miterlimit:10;}
	.st8{fill:#DFC304;}
	.st9{fill:#FFE202;}
	.st10{fill:#BEA305;}
</style>
<path id="XMLID_209_" class="st0" d="M281.3,720.4"/>
<polygon id="XMLID_5_" class="st1" points="216.3,25 216.3,476.1 216.2,758.1 238,770.7 238,37.6 "/>
<polygon id="XMLID_7_" class="st2" points="297.7,523.1 297.7,72 238,37.6 238,770.7 297.8,805.1 "/>
<polygon id="XMLID_4_" class="st3" points="216.2,758.1 297.8,805.1 379.1,758.2 387.2,762.8 297.8,814.7 208.1,762.7 "/>
<polygon id="XMLID_1_" class="st1" points="379,25 387.2,29.7 387.2,762.8 379.1,758.2 "/>
<polygon id="XMLID_6_" class="st4" points="208.1,762.7 208.1,29.8 216.3,25 216.2,758.1 "/>
<g>
	<polygon class="st5" points="358.7,403.2 358.7,403.2 362.7,400.9 	"/>
	<polygon class="st6" points="368.7,100.3 368.7,106 373.7,103 373.7,88.9 368.7,91.8 	"/>
	<polygon class="st6" points="368.7,142.8 368.7,148.5 373.7,145.6 373.7,131.4 368.7,134.3 	"/>
	<polygon class="st6" points="368.7,128.7 368.7,134.3 373.7,131.4 373.7,117.2 368.7,120.1 	"/>
	<polygon class="st6" points="368.7,114.5 368.7,120.1 373.7,117.2 373.7,103 368.7,106 	"/>
	<polygon class="st6" points="368.7,72 368.7,77.6 373.7,74.7 373.7,60.5 368.7,63.5 	"/>
	<polygon class="st6" points="373.7,32.2 373.7,28 368.7,30.9 368.7,35.1 	"/>
	<polygon class="st6" points="368.7,43.6 368.7,49.3 373.7,46.3 373.7,32.2 368.7,35.1 	"/>
	<polygon class="st6" points="368.7,57.8 368.7,63.5 373.7,60.5 373.7,46.3 368.7,49.3 	"/>
	<polygon class="st6" points="368.7,86.1 368.7,91.8 373.7,88.9 373.7,74.7 368.7,77.6 	"/>
	<polygon class="st6" points="368.7,256.2 368.7,256.3 368.7,261.9 373.7,258.9 368.7,261.9 368.7,276 373.7,273.1 368.7,276 
		368.7,290.2 373.7,287.3 368.7,290.2 368.7,304.4 373.7,301.5 368.7,304.4 368.7,318.6 373.7,315.6 368.7,318.6 368.7,332.7 
		373.7,329.8 368.7,332.7 368.7,346.9 373.7,344 368.7,346.9 368.7,361.1 373.7,358.2 368.7,361.1 368.8,375.3 373.7,372.3 
		368.8,375.3 368.8,389.4 373.7,386.5 368.8,389.4 368.8,397.3 368.8,397.3 368.8,397.4 373.8,394.6 373.7,253.5 373.7,244.8 
		368.7,247.7 	"/>
	<polygon class="st6" points="368.7,242 368.7,247.7 373.7,244.8 373.7,230.6 368.7,233.5 	"/>
	<polygon class="st6" points="368.7,227.9 368.7,233.5 373.7,230.6 373.7,216.4 368.7,219.4 	"/>
	<polygon class="st6" points="368.7,157 368.7,162.7 373.7,159.7 373.7,145.6 368.7,148.5 	"/>
	<polygon class="st6" points="368.7,185.3 368.7,191 373.7,188.1 373.7,173.9 368.7,176.8 	"/>
	<polygon class="st6" points="368.7,213.7 368.7,219.4 373.7,216.4 373.7,202.3 368.7,205.2 	"/>
	<polygon class="st6" points="368.7,171.2 368.7,176.8 373.7,173.9 373.7,159.7 368.7,162.7 	"/>
	<polygon class="st6" points="368.7,199.5 368.7,205.2 373.7,202.3 373.7,188.1 368.7,191 	"/>
	<polygon class="st6" points="378.8,66.2 373.8,69.1 373.8,83.3 378.8,80.4 	"/>
	<polygon class="st6" points="378.8,94.5 373.8,97.5 373.8,111.6 378.8,108.7 	"/>
	<polygon class="st6" points="378.8,108.7 373.8,111.6 373.8,125.8 378.8,122.9 	"/>
	<polygon class="st6" points="378.8,122.9 373.8,125.8 373.8,140 378.8,137.1 	"/>
	<polygon class="st6" points="378.8,52 373.8,54.9 373.8,69.1 378.8,66.2 	"/>
	<polygon class="st6" points="378.8,25 373.8,27.9 373.8,40.8 378.8,37.8 	"/>
	<polygon class="st6" points="378.8,137.1 373.8,140 373.8,154.2 378.8,151.2 	"/>
	<polygon class="st6" points="378.8,37.8 373.8,40.8 373.8,54.9 378.8,52 	"/>
	<polygon class="st6" points="378.8,80.4 373.8,83.3 373.8,97.5 378.8,94.5 	"/>
	<polygon class="st6" points="378.8,151.2 373.8,154.2 373.8,168.3 378.8,165.4 	"/>
	<polygon class="st6" points="378.8,236.3 373.8,239.2 373.8,253.4 378.8,250.4 	"/>
	<polygon class="st6" points="378.8,207.9 373.8,210.9 373.8,225 378.8,222.1 	"/>
	<polygon class="st6" points="378.9,391.5 378.8,250.5 378.8,250.4 373.8,253.4 373.8,267.5 378.8,264.6 373.8,267.5 373.8,281.7 
		378.8,278.8 373.8,281.7 373.8,295.9 378.8,293 373.8,295.9 373.8,310.1 378.8,307.1 373.8,310.1 373.8,324.2 378.8,321.3 
		373.8,324.2 373.8,338.4 378.8,335.5 373.8,338.4 373.8,352.6 378.8,349.7 373.8,352.6 373.8,366.8 378.8,363.8 373.8,366.8 
		373.8,380.9 378.8,378 373.8,380.9 373.8,394.5 373.9,394.5 373.9,394.4 	"/>
	<polygon class="st6" points="378.8,222.1 373.8,225 373.8,239.2 378.8,236.3 	"/>
	<polygon class="st6" points="378.8,165.4 373.8,168.3 373.8,182.5 378.8,179.6 	"/>
	<polygon class="st6" points="378.8,179.6 373.8,182.5 373.8,196.7 378.8,193.7 	"/>
	<polygon class="st6" points="378.8,193.7 373.8,196.7 373.8,210.9 378.8,207.9 	"/>
	<polygon class="st6" points="358.6,106.2 358.6,111.7 363.6,108.8 363.6,94.6 358.6,97.6 	"/>
	<polygon class="st6" points="358.6,148.7 358.6,154.3 363.6,151.3 363.6,137.2 358.6,140.1 	"/>
	<polygon class="st6" points="358.6,134.5 358.6,140.1 363.6,137.2 363.6,123 358.6,125.9 	"/>
	<polygon class="st6" points="358.6,120.4 358.6,125.9 363.6,123 363.6,108.8 358.6,111.7 	"/>
	<polygon class="st6" points="358.6,77.9 358.6,83.4 363.6,80.5 363.6,66.3 358.6,69.2 	"/>
	<polygon class="st6" points="363.6,37.9 363.6,33.8 358.6,36.7 358.6,40.9 	"/>
	<polygon class="st6" points="358.6,49.5 358.6,55.1 363.6,52.1 363.6,37.9 358.6,40.9 	"/>
	<polygon class="st6" points="358.6,63.7 358.6,69.2 363.6,66.3 363.6,52.1 358.6,55.1 	"/>
	<polygon class="st6" points="358.6,92 358.6,97.6 363.6,94.6 363.6,80.5 358.6,83.4 	"/>
	<polygon class="st6" points="358.6,262.1 358.6,262.2 358.6,267.6 363.6,264.7 358.6,267.6 358.6,281.8 363.6,278.9 358.6,281.8 
		358.6,296 363.6,293.1 358.6,296 358.6,310.2 363.6,307.2 358.6,310.2 358.6,324.3 363.6,321.4 358.6,324.3 358.6,338.5 
		363.6,335.6 358.6,338.5 358.6,352.7 363.6,349.8 358.6,352.7 358.6,366.9 363.6,363.9 358.6,366.9 358.6,381 363.6,378.1 
		358.6,381 358.6,395.2 363.6,392.3 358.6,395.2 358.6,403.2 358.7,403.2 358.7,403.2 362.7,400.9 363.7,400.3 363.6,259.3 
		363.6,250.5 358.6,253.5 	"/>
	<polygon class="st6" points="358.6,247.9 358.6,253.5 363.6,250.5 363.6,236.4 358.6,239.3 	"/>
	<polygon class="st6" points="358.6,233.8 358.6,239.3 363.6,236.4 363.6,222.2 358.6,225.1 	"/>
	<polygon class="st6" points="358.6,162.9 358.6,168.4 363.6,165.5 363.6,151.3 358.6,154.3 	"/>
	<polygon class="st6" points="358.6,191.2 358.6,196.8 363.6,193.9 363.6,179.7 358.6,182.6 	"/>
	<polygon class="st6" points="358.6,219.6 358.6,225.1 363.6,222.2 363.6,208 358.6,211 	"/>
	<polygon class="st6" points="358.6,177.1 358.6,182.6 363.6,179.7 363.6,165.5 358.6,168.4 	"/>
	<polygon class="st6" points="358.6,205.4 358.6,211 363.6,208 363.6,193.9 358.6,196.8 	"/>
	<polygon class="st6" points="368.7,77.6 368.7,72 363.7,74.9 363.7,89.1 368.7,86.1 	"/>
	<polygon class="st6" points="368.7,106 368.7,100.3 363.7,103.2 363.7,117.4 368.7,114.5 	"/>
	<polygon class="st6" points="368.7,120.1 368.7,114.5 363.7,117.4 363.7,131.6 368.7,128.7 	"/>
	<polygon class="st6" points="368.7,134.3 368.7,128.7 363.7,131.6 363.7,145.8 368.7,142.8 	"/>
	<polygon class="st6" points="368.7,63.5 368.7,57.8 363.7,60.7 363.7,74.9 368.7,72 	"/>
	<polygon class="st6" points="368.7,35.1 368.7,30.9 368.7,30.8 363.7,33.7 363.7,46.5 368.7,43.6 	"/>
	<polygon class="st6" points="368.7,148.5 368.7,142.8 363.7,145.8 363.7,159.9 368.7,157 	"/>
	<polygon class="st6" points="368.7,49.3 368.7,43.6 363.7,46.5 363.7,60.7 368.7,57.8 	"/>
	<polygon class="st6" points="368.7,91.8 368.7,86.1 363.7,89.1 363.7,103.2 368.7,100.3 	"/>
	<polygon class="st6" points="368.7,162.7 368.7,157 363.7,159.9 363.7,174.1 368.7,171.2 	"/>
	<polygon class="st6" points="368.7,247.7 368.7,242 363.7,245 363.7,259.1 368.7,256.2 	"/>
	<polygon class="st6" points="368.7,219.4 368.7,213.7 363.7,216.6 363.7,230.8 368.7,227.9 	"/>
	<polygon class="st6" points="368.7,346.9 368.7,341.3 363.7,344.2 363.7,358.4 368.7,355.4 	"/>
	<polygon class="st6" points="368.7,361.1 368.7,355.4 363.7,358.4 363.7,372.5 368.7,369.6 	"/>
	<polygon class="st6" points="368.7,389.4 368.7,383.8 363.7,386.7 363.7,400.3 367.8,397.9 368.7,397.4 	"/>
	<polygon class="st6" points="368.7,375.3 368.7,369.6 363.7,372.5 363.7,386.7 368.7,383.8 	"/>
	<polygon class="st6" points="368.7,318.6 368.7,312.9 363.7,315.8 363.7,330 368.7,327.1 	"/>
	<polygon class="st6" points="368.7,261.9 368.7,256.3 368.7,256.2 363.7,259.1 363.7,273.3 368.7,270.4 	"/>
	<polygon class="st6" points="368.7,304.4 368.7,298.7 363.7,301.7 363.7,315.8 368.7,312.9 	"/>
	<polygon class="st6" points="368.7,276 368.7,270.4 363.7,273.3 363.7,287.5 368.7,284.6 	"/>
	<polygon class="st6" points="368.7,290.2 368.7,284.6 363.7,287.5 363.7,301.7 368.7,298.7 	"/>
	<polygon class="st6" points="368.7,332.7 368.7,327.1 363.7,330 363.7,344.2 368.7,341.3 	"/>
	<polygon class="st6" points="368.7,304.4 368.7,304.4 368.7,312.9 368.7,318.6 368.7,318.6 	"/>
	<polygon class="st6" points="368.7,290.2 368.7,290.2 368.7,298.7 368.7,304.4 368.7,304.4 	"/>
	<polygon class="st6" points="368.7,261.9 368.7,261.9 368.7,270.4 368.7,276 368.7,276 	"/>
	<polygon class="st6" points="368.7,318.6 368.7,318.6 368.7,327.1 368.7,332.7 368.7,332.7 	"/>
	<polygon class="st6" points="368.7,256.3 368.7,261.9 368.7,261.9 	"/>
	<polygon class="st6" points="368.7,276 368.7,276 368.7,284.6 368.7,290.2 368.7,290.2 	"/>
	<polygon class="st6" points="368.8,375.3 368.7,375.3 368.7,383.8 368.7,389.4 368.8,389.4 	"/>
	<polygon class="st6" points="368.8,389.4 368.7,389.4 368.7,397.4 368.8,397.3 	"/>
	<polygon class="st6" points="368.7,346.9 368.7,346.9 368.7,355.4 368.7,361.1 368.7,361.1 	"/>
	<polygon class="st6" points="368.7,361.1 368.7,361.1 368.7,369.6 368.7,375.3 368.8,375.3 	"/>
	<polygon class="st6" points="368.7,332.7 368.7,332.7 368.7,341.3 368.7,346.9 368.7,346.9 	"/>
	<polygon class="st6" points="368.7,233.5 368.7,227.9 363.7,230.8 363.7,245 368.7,242 	"/>
	<polygon class="st6" points="368.7,176.8 368.7,171.2 363.7,174.1 363.7,188.3 368.7,185.3 	"/>
	<polygon class="st6" points="368.7,191 368.7,185.3 363.7,188.3 363.7,202.5 368.7,199.5 	"/>
	<polygon class="st6" points="368.7,205.2 368.7,199.5 363.7,202.5 363.7,216.6 368.7,213.7 	"/>
	<polygon class="st6" points="348.5,112.1 348.5,117.6 353.5,114.7 353.5,100.5 348.5,103.5 	"/>
	<polygon class="st6" points="348.5,154.6 348.5,160.2 353.5,157.2 353.5,143 348.5,146 	"/>
	<polygon class="st6" points="348.5,140.4 348.5,146 353.5,143 353.5,128.9 348.5,131.8 	"/>
	<polygon class="st6" points="348.5,126.2 348.5,131.8 353.5,128.9 353.5,114.7 348.5,117.6 	"/>
	<polygon class="st6" points="348.5,83.7 348.5,89.3 353.5,86.4 353.5,72.2 348.5,75.1 	"/>
	<polygon class="st6" points="353.5,43.8 353.5,39.7 348.5,42.6 348.5,46.8 	"/>
	<polygon class="st6" points="348.5,55.4 348.5,60.9 353.5,58 353.5,43.8 348.5,46.8 	"/>
	<polygon class="st6" points="348.5,69.6 348.5,75.1 353.5,72.2 353.5,58 348.5,60.9 	"/>
	<polygon class="st6" points="348.5,97.9 348.5,103.5 353.5,100.5 353.5,86.4 348.5,89.3 	"/>
	<polygon class="st6" points="348.5,268 348.5,268.1 348.5,273.5 353.5,270.6 348.5,273.5 348.5,287.7 353.5,284.8 348.5,287.7 
		348.5,301.9 353.5,299 348.5,301.9 348.5,316.1 353.5,313.1 348.5,316.1 348.5,330.2 353.5,327.3 348.5,330.2 348.5,344.4 
		353.5,341.5 348.5,344.4 348.5,358.6 353.5,355.6 348.5,358.6 348.5,372.7 353.5,369.8 348.5,372.7 348.5,386.9 353.5,384 
		348.5,386.9 348.5,401.1 353.5,398.2 348.5,401.1 348.5,409.1 348.6,409 348.6,409.1 353.6,406.2 353.5,265.2 353.5,256.4 
		348.5,259.4 	"/>
	<polygon class="st6" points="348.5,253.8 348.5,259.4 353.5,256.4 353.5,242.3 348.5,245.2 	"/>
	<polygon class="st6" points="348.5,239.6 348.5,245.2 353.5,242.3 353.5,228.1 348.5,231 	"/>
	<polygon class="st6" points="348.5,168.8 348.5,174.3 353.5,171.4 353.5,157.2 348.5,160.2 	"/>
	<polygon class="st6" points="348.5,197.1 348.5,202.7 353.5,199.7 353.5,185.6 348.5,188.5 	"/>
	<polygon class="st6" points="348.5,225.5 348.5,231 353.5,228.1 353.5,213.9 348.5,216.8 	"/>
	<polygon class="st6" points="348.5,182.9 348.5,188.5 353.5,185.6 353.5,171.4 348.5,174.3 	"/>
	<polygon class="st6" points="348.5,211.3 348.5,216.8 353.5,213.9 353.5,199.7 348.5,202.7 	"/>
	<polygon class="st6" points="358.6,83.4 358.6,77.9 353.6,80.8 353.6,95 358.6,92 	"/>
	<polygon class="st6" points="358.6,111.7 358.6,106.2 353.6,109.1 353.6,123.3 358.6,120.4 	"/>
	<polygon class="st6" points="358.6,125.9 358.6,120.4 353.6,123.3 353.6,137.5 358.6,134.5 	"/>
	<polygon class="st6" points="358.6,140.1 358.6,134.5 353.6,137.5 353.6,151.6 358.6,148.7 	"/>
	<polygon class="st6" points="358.6,69.2 358.6,63.7 353.6,66.6 353.6,80.8 358.6,77.9 	"/>
	<polygon class="st6" points="358.6,40.9 358.6,36.7 358.6,36.7 353.6,39.6 353.6,52.4 358.6,49.5 	"/>
	<polygon class="st6" points="358.6,154.3 358.6,148.7 353.6,151.6 353.6,165.8 358.6,162.9 	"/>
	<polygon class="st6" points="358.6,55.1 358.6,49.5 353.6,52.4 353.6,66.6 358.6,63.7 	"/>
	<polygon class="st6" points="358.6,97.6 358.6,92 353.6,95 353.6,109.1 358.6,106.2 	"/>
	<polygon class="st6" points="358.6,168.4 358.6,162.9 353.6,165.8 353.6,180 358.6,177.1 	"/>
	<polygon class="st6" points="358.6,253.5 358.6,247.9 353.6,250.9 353.6,265 358.6,262.1 	"/>
	<polygon class="st6" points="358.6,225.1 358.6,219.6 353.6,222.5 353.6,236.7 358.6,233.8 	"/>
	<polygon class="st6" points="358.6,267.6 358.6,262.2 358.6,262.1 353.6,265 353.6,279.2 358.6,276.3 	"/>
	<polygon class="st6" points="358.6,281.8 358.6,276.3 353.6,279.2 353.6,293.4 358.6,290.4 	"/>
	<polygon class="st6" points="358.6,403.3 358.6,395.2 358.6,389.7 353.6,392.6 353.6,406.2 353.7,406.1 353.7,406.1 	"/>
	<polygon class="st6" points="358.6,296 358.6,290.4 353.6,293.4 353.6,307.5 358.6,304.6 	"/>
	<polygon class="st6" points="358.6,352.7 358.6,347.1 353.6,350.1 353.6,364.2 358.6,361.3 	"/>
	<polygon class="st6" points="358.6,366.9 358.6,361.3 353.6,364.2 353.6,378.4 358.6,375.5 	"/>
	<polygon class="st6" points="358.6,381 358.6,375.5 353.6,378.4 353.6,392.6 358.6,389.7 	"/>
	<polygon class="st6" points="358.6,324.3 358.6,318.8 353.6,321.7 353.6,335.9 358.6,333 	"/>
	<polygon class="st6" points="358.6,338.5 358.6,333 353.6,335.9 353.6,350.1 358.6,347.1 	"/>
	<polygon class="st6" points="358.6,310.2 358.6,304.6 353.6,307.5 353.6,321.7 358.6,318.8 	"/>
	<polygon class="st6" points="358.6,366.9 358.6,366.9 358.6,375.5 358.6,381 358.6,381 	"/>
	<polygon class="st6" points="358.6,352.7 358.6,352.7 358.6,361.3 358.6,366.9 358.6,366.9 	"/>
	<polygon class="st6" points="358.6,381 358.6,381 358.6,389.7 358.6,395.2 358.6,395.2 	"/>
	<polygon class="st6" points="358.6,395.2 358.6,395.2 358.6,403.3 358.6,403.2 	"/>
	<polygon class="st6" points="358.6,338.5 358.6,338.5 358.6,347.1 358.6,352.7 358.6,352.7 	"/>
	<polygon class="st6" points="358.6,281.8 358.6,281.8 358.6,290.4 358.6,296 358.6,296 	"/>
	<polygon class="st6" points="358.6,296 358.6,296 358.6,304.6 358.6,310.2 358.6,310.2 	"/>
	<polygon class="st6" points="358.6,262.2 358.6,267.6 358.6,267.6 	"/>
	<polygon class="st6" points="358.6,324.3 358.6,324.3 358.6,333 358.6,338.5 358.6,338.5 	"/>
	<polygon class="st6" points="358.6,310.2 358.6,310.2 358.6,318.8 358.6,324.3 358.6,324.3 	"/>
	<polygon class="st6" points="358.6,267.6 358.6,267.6 358.6,276.3 358.6,281.8 358.6,281.8 	"/>
	<polygon class="st6" points="358.6,239.3 358.6,233.8 353.6,236.7 353.6,250.9 358.6,247.9 	"/>
	<polygon class="st6" points="358.6,182.6 358.6,177.1 353.6,180 353.6,194.2 358.6,191.2 	"/>
	<polygon class="st6" points="358.6,196.8 358.6,191.2 353.6,194.2 353.6,208.3 358.6,205.4 	"/>
	<polygon class="st6" points="358.6,211 358.6,205.4 353.6,208.3 353.6,222.5 358.6,219.6 	"/>
	<polygon class="st6" points="343.4,106.4 338.4,109.3 338.4,123.5 343.4,120.6 	"/>
	<polygon class="st6" points="343.4,148.9 338.4,151.9 338.4,166 343.4,163.1 	"/>
	<polygon class="st6" points="343.4,134.7 338.4,137.7 338.4,151.9 343.4,148.9 	"/>
	<polygon class="st6" points="343.4,120.6 338.4,123.5 338.4,137.7 343.4,134.7 	"/>
	<polygon class="st6" points="343.4,78.1 338.4,81 338.4,95.2 343.4,92.2 	"/>
	<polygon class="st6" points="343.4,45.5 338.4,48.5 338.4,52.6 343.4,49.7 	"/>
	<polygon class="st6" points="343.4,49.7 338.4,52.6 338.4,66.8 343.4,63.9 	"/>
	<polygon class="st6" points="343.4,63.9 338.4,66.8 338.4,81 343.4,78.1 	"/>
	<polygon class="st6" points="343.4,92.2 338.4,95.2 338.4,109.3 343.4,106.4 	"/>
	<polygon class="st6" points="343.4,271.1 343.4,262.3 338.4,265.2 338.4,279.4 343.4,276.5 338.4,279.4 338.4,293.6 343.4,290.7 
		338.4,293.6 338.4,304.5 338.4,307.8 343.4,304.8 338.4,307.8 338.4,321.9 343.4,319 338.4,321.9 338.4,336.1 343.4,333.2 
		338.4,336.1 338.4,350.3 343.4,347.3 338.4,350.3 338.4,364.4 343.4,361.5 338.4,364.4 338.4,378.6 343.4,375.7 338.4,378.6 
		338.4,392.8 343.4,389.9 338.4,392.8 338.4,407 343.4,404 338.4,407 338.4,415 338.4,415 338.4,415 342.5,412.7 343.4,412.1 	"/>
	<polygon class="st6" points="343.4,248.1 338.4,251.1 338.4,265.2 343.4,262.3 	"/>
	<polygon class="st6" points="343.4,234 338.4,236.9 338.4,251.1 343.4,248.1 	"/>
	<polygon class="st6" points="343.4,163.1 338.4,166 338.4,180.2 343.4,177.3 	"/>
	<polygon class="st6" points="343.4,191.4 338.4,194.4 338.4,208.5 343.4,205.6 	"/>
	<polygon class="st6" points="343.4,219.8 338.4,222.7 338.4,236.9 343.4,234 	"/>
	<polygon class="st6" points="343.4,177.3 338.4,180.2 338.4,194.4 343.4,191.4 	"/>
	<polygon class="st6" points="343.4,205.6 338.4,208.5 338.4,222.7 343.4,219.8 	"/>
	<polygon class="st6" points="348.5,89.3 348.5,83.7 343.4,86.7 343.4,100.8 348.5,97.9 	"/>
	<polygon class="st6" points="348.5,117.6 348.5,112.1 343.4,115 343.4,129.2 348.5,126.2 	"/>
	<polygon class="st6" points="348.5,131.8 348.5,126.2 343.4,129.2 343.4,143.3 348.5,140.4 	"/>
	<polygon class="st6" points="348.5,146 348.5,140.4 343.4,143.3 343.4,157.5 348.5,154.6 	"/>
	<polygon class="st6" points="348.5,75.1 348.5,69.6 343.4,72.5 343.4,86.7 348.5,83.7 	"/>
	<polygon class="st6" points="348.5,46.8 348.5,42.6 348.5,42.5 343.4,45.5 343.4,58.3 348.5,55.4 	"/>
	<polygon class="st6" points="348.5,160.2 348.5,154.6 343.4,157.5 343.4,171.7 348.5,168.8 	"/>
	<polygon class="st6" points="348.5,60.9 348.5,55.4 343.4,58.3 343.4,72.5 348.5,69.6 	"/>
	<polygon class="st6" points="348.5,103.5 348.5,97.9 343.4,100.8 343.4,115 348.5,112.1 	"/>
	<polygon class="st6" points="348.5,174.3 348.5,168.8 343.4,171.7 343.4,185.9 348.5,182.9 	"/>
	<polygon class="st6" points="348.5,259.4 348.5,253.8 343.4,256.7 343.4,270.9 348.5,268 	"/>
	<polygon class="st6" points="348.5,231 348.5,225.5 343.4,228.4 343.4,242.6 348.5,239.6 	"/>
	<polygon class="st6" points="348.5,287.7 348.5,282.1 343.4,285.1 343.4,299.2 348.5,296.3 	"/>
	<polygon class="st6" points="348.5,386.9 348.5,381.4 343.4,384.3 343.4,398.5 348.5,395.5 	"/>
	<polygon class="st6" points="348.5,273.5 348.5,268.1 348.5,268 343.4,270.9 343.4,285.1 348.5,282.1 	"/>
	<polygon class="st6" points="348.5,401.1 348.5,395.5 343.4,398.5 343.4,412 347.5,409.7 348.5,409.1 	"/>
	<polygon class="st6" points="348.5,301.9 348.5,296.3 343.4,299.2 343.4,313.4 348.5,310.5 	"/>
	<polygon class="st6" points="348.5,316.1 348.5,310.5 343.4,313.4 343.4,327.6 348.5,324.7 	"/>
	<polygon class="st6" points="348.5,358.6 348.5,353 343.4,355.9 343.4,370.1 348.5,367.2 	"/>
	<polygon class="st6" points="348.5,372.7 348.5,367.2 343.4,370.1 343.4,384.3 348.5,381.4 	"/>
	<polygon class="st6" points="348.5,330.2 348.5,324.7 343.4,327.6 343.4,341.8 348.5,338.8 	"/>
	<polygon class="st6" points="348.5,344.4 348.5,338.8 343.4,341.8 343.4,355.9 348.5,353 	"/>
	<polygon class="st6" points="348.5,344.4 348.5,344.4 348.5,353 348.5,358.6 348.5,358.6 	"/>
	<polygon class="st6" points="348.5,330.2 348.5,330.2 348.5,338.8 348.5,344.4 348.5,344.4 	"/>
	<polygon class="st6" points="348.5,316.1 348.5,316.1 348.5,324.7 348.5,330.2 348.5,330.2 	"/>
	<polygon class="st6" points="348.5,401.1 348.5,401.1 348.5,409.1 348.5,409.1 	"/>
	<polygon class="st6" points="348.5,358.6 348.5,358.6 348.5,367.2 348.5,372.7 348.5,372.7 	"/>
	<polygon class="st6" points="348.5,372.7 348.5,372.7 348.5,381.4 348.5,386.9 348.5,386.9 	"/>
	<polygon class="st6" points="348.5,273.5 348.5,273.5 348.5,282.1 348.5,287.7 348.5,287.7 	"/>
	<polygon class="st6" points="348.5,268.1 348.5,273.5 348.5,273.5 	"/>
	<polygon class="st6" points="348.5,287.7 348.5,287.7 348.5,296.3 348.5,301.9 348.5,301.9 	"/>
	<polygon class="st6" points="348.5,301.9 348.5,301.9 348.5,310.5 348.5,316.1 348.5,316.1 	"/>
	<polygon class="st6" points="348.5,386.9 348.5,386.9 348.5,395.5 348.5,401.1 348.5,401.1 	"/>
	<polygon class="st6" points="348.5,245.2 348.5,239.6 343.4,242.6 343.4,256.7 348.5,253.8 	"/>
	<polygon class="st6" points="348.5,188.5 348.5,182.9 343.4,185.9 343.4,200 348.5,197.1 	"/>
	<polygon class="st6" points="348.5,202.7 348.5,197.1 343.4,200 343.4,214.2 348.5,211.3 	"/>
	<polygon class="st6" points="348.5,216.8 348.5,211.3 343.4,214.2 343.4,228.4 348.5,225.5 	"/>
	<polygon class="st6" points="328.2,123.8 328.2,129.4 333.3,126.5 333.3,112.3 328.2,115.2 	"/>
	<polygon class="st6" points="328.2,166.3 328.2,171.9 333.3,169 333.3,154.8 328.2,157.8 	"/>
	<polygon class="st6" points="328.2,152.1 328.2,157.8 333.3,154.8 333.3,140.7 328.2,143.6 	"/>
	<polygon class="st6" points="328.2,137.9 328.2,143.6 333.3,140.7 333.3,126.5 328.2,129.4 	"/>
	<polygon class="st6" points="328.2,95.4 328.2,101.1 333.3,98.1 333.3,84 328.2,86.9 	"/>
	<polygon class="st6" points="333.3,55.6 333.3,51.5 328.2,54.4 328.2,58.6 	"/>
	<polygon class="st6" points="328.2,67.1 328.2,72.7 333.3,69.8 333.3,55.6 328.2,58.6 	"/>
	<polygon class="st6" points="328.2,81.2 328.2,86.9 333.3,84 333.3,69.8 328.2,72.7 	"/>
	<polygon class="st6" points="328.2,109.6 328.2,115.2 333.3,112.3 333.3,98.1 328.2,101.1 	"/>
	<polygon class="st6" points="333.3,418 333.3,277 333.3,268.2 328.2,271.2 328.2,279.7 328.2,279.7 328.2,285.3 333.3,282.4 
		328.2,285.3 328.2,299.5 333.3,296.6 328.2,299.5 328.2,313.7 333.3,310.7 328.2,313.7 328.3,327.8 333.3,324.9 328.3,327.8 
		328.3,342 333.3,339.1 328.3,342 328.3,356.1 333.3,353.3 328.3,356.1 328.3,370.3 333.3,367.4 328.3,370.3 328.3,384.5 
		333.3,381.6 328.3,384.5 328.3,398.7 333.3,395.8 328.3,398.7 328.3,412.8 333.3,410 328.3,412.8 328.3,420.8 328.2,420.8 
		328.2,421 333.3,418 333.3,418 	"/>
	<polygon class="st6" points="328.2,265.5 328.2,271.2 333.3,268.2 333.3,254 328.2,257 	"/>
	<polygon class="st6" points="328.2,251.3 328.2,257 333.3,254 333.3,239.9 328.2,242.8 	"/>
	<polygon class="st6" points="328.2,180.5 328.2,186.1 333.3,183.2 333.3,169 328.2,171.9 	"/>
	<polygon class="st6" points="328.2,208.8 328.2,214.5 333.3,211.5 333.3,197.4 328.2,200.3 	"/>
	<polygon class="st6" points="328.2,237.1 328.2,242.8 333.3,239.9 333.3,225.7 328.2,228.6 	"/>
	<polygon class="st6" points="328.2,194.6 328.2,200.3 333.3,197.4 333.3,183.2 328.2,186.1 	"/>
	<polygon class="st6" points="328.2,223 328.2,228.6 333.3,225.7 333.3,211.5 328.2,214.5 	"/>
	<polygon class="st6" points="338.4,89.6 333.3,92.6 333.3,106.7 338.4,103.8 	"/>
	<polygon class="st6" points="338.4,118 333.3,120.9 333.3,135.1 338.4,132.2 	"/>
	<polygon class="st6" points="338.4,132.2 333.3,135.1 333.3,149.3 338.4,146.3 	"/>
	<polygon class="st6" points="338.4,146.3 333.3,149.3 333.3,163.4 338.4,160.5 	"/>
	<polygon class="st6" points="338.4,75.5 333.3,78.4 333.3,92.6 338.4,89.6 	"/>
	<polygon class="st6" points="338.4,48.4 333.3,51.4 333.3,64.2 338.4,61.3 	"/>
	<polygon class="st6" points="338.4,160.5 333.3,163.4 333.3,177.6 338.4,174.7 	"/>
	<polygon class="st6" points="338.4,61.3 333.3,64.2 333.3,78.4 338.4,75.5 	"/>
	<polygon class="st6" points="338.4,103.8 333.3,106.7 333.3,120.9 338.4,118 	"/>
	<polygon class="st6" points="338.4,174.7 333.3,177.6 333.3,191.8 338.4,188.9 	"/>
	<polygon class="st6" points="338.4,259.7 333.3,262.6 333.3,276.8 338.4,273.9 	"/>
	<polygon class="st6" points="338.4,231.4 333.3,234.3 333.3,248.5 338.4,245.5 	"/>
	<polygon class="st6" points="338.4,392.8 338.4,378.6 338.4,364.4 338.4,350.3 338.4,336.1 338.4,321.9 338.4,307.8 338.4,304.5 
		338.4,274 338.4,273.9 333.3,276.8 333.3,291 338.4,288.1 333.3,291 333.3,305.2 338.4,302.2 333.3,305.2 333.3,319.3 338.4,316.4 
		333.3,319.3 333.3,333.5 338.4,330.6 333.3,333.5 333.3,347.7 338.4,344.8 333.3,347.7 333.3,361.9 338.4,358.9 333.3,361.9 
		333.3,376 338.4,373.1 333.3,376 333.3,390.2 338.4,387.3 333.3,390.2 333.3,404.4 338.4,401.4 333.3,404.4 333.3,418 335.8,416.5 
		338.3,415 338.3,415.1 338.4,415 338.4,407 	"/>
	<polygon class="st6" points="338.4,321.9 338.4,321.9 338.4,307.8 338.4,307.8 	"/>
	<polygon class="st6" points="338.4,407 338.4,407 338.4,392.8 338.4,392.8 	"/>
	<polygon class="st6" points="338.4,307.8 338.4,304.5 338.4,307.8 	"/>
	<polygon class="st6" points="338.4,392.8 338.4,392.8 338.4,378.6 338.4,378.6 	"/>
	<polygon class="st6" points="338.4,407 338.4,407 338.4,415 338.4,415 	"/>
	<polygon class="st6" points="338.4,350.3 338.4,350.3 338.4,336.1 338.4,336.1 	"/>
	<polygon class="st6" points="338.4,336.1 338.4,336.1 338.4,321.9 338.4,321.9 	"/>
	<polygon class="st6" points="338.4,364.4 338.4,364.4 338.4,350.3 338.4,350.3 	"/>
	<polygon class="st6" points="338.4,378.6 338.4,378.6 338.4,364.4 338.4,364.4 	"/>
	<polygon class="st6" points="338.4,245.5 333.3,248.5 333.3,262.6 338.4,259.7 	"/>
	<polygon class="st6" points="338.4,188.9 333.3,191.8 333.3,206 338.4,203 	"/>
	<polygon class="st6" points="338.4,203 333.3,206 333.3,220.1 338.4,217.2 	"/>
	<polygon class="st6" points="338.4,217.2 333.3,220.1 333.3,234.3 338.4,231.4 	"/>
	<polygon class="st6" points="318.1,129.6 318.1,135.2 323.2,132.3 323.2,118.1 318.1,121 	"/>
	<polygon class="st6" points="318.1,172.2 318.1,177.7 323.2,174.8 323.2,160.6 318.1,163.5 	"/>
	<polygon class="st6" points="318.1,158 318.1,163.5 323.2,160.6 323.2,146.4 318.1,149.4 	"/>
	<polygon class="st6" points="318.1,143.8 318.1,149.4 323.2,146.4 323.2,132.3 318.1,135.2 	"/>
	<polygon class="st6" points="318.1,101.3 318.1,106.8 323.2,103.9 323.2,89.7 318.1,92.7 	"/>
	<polygon class="st6" points="323.2,61.4 323.2,57.2 318.1,60.2 318.1,64.3 	"/>
	<polygon class="st6" points="318.1,73 318.1,78.5 323.2,75.6 323.2,61.4 318.1,64.3 	"/>
	<polygon class="st6" points="318.1,87.1 318.1,92.7 323.2,89.7 323.2,75.6 318.1,78.5 	"/>
	<polygon class="st6" points="318.1,115.5 318.1,121 323.2,118.1 323.2,103.9 318.1,106.8 	"/>
	<polygon class="st6" points="318.1,285.6 318.1,285.6 318.1,291.1 323.2,288.2 318.1,291.1 318.1,305.3 323.2,302.3 318.1,305.3 
		318.1,319.4 323.2,316.5 318.1,319.4 318.1,333.6 323.2,330.7 318.1,333.6 318.1,347.7 323.2,344.9 318.1,347.7 318.1,361.9 
		323.2,359 318.1,361.9 318.2,376.1 323.2,373.2 318.2,376.1 318.2,390.3 323.2,387.4 318.2,390.3 318.2,404.4 323.2,401.6 
		318.2,404.4 318.2,418.6 323.2,415.7 318.2,418.6 318.2,426.7 318.1,426.7 318.1,426.7 323.2,423.8 323.2,282.7 323.2,274 
		318.1,276.9 	"/>
	<polygon class="st6" points="318.1,271.4 318.1,276.9 323.2,274 323.2,259.8 318.1,262.8 	"/>
	<polygon class="st6" points="318.1,257.2 318.1,262.8 323.2,259.8 323.2,245.6 318.1,248.6 	"/>
	<polygon class="st6" points="318.1,186.3 318.1,191.9 323.2,189 323.2,174.8 318.1,177.7 	"/>
	<polygon class="st6" points="318.1,214.7 318.1,220.2 323.2,217.3 323.2,203.1 318.1,206.1 	"/>
	<polygon class="st6" points="318.1,243 318.1,248.6 323.2,245.6 323.2,231.5 318.1,234.4 	"/>
	<polygon class="st6" points="318.1,200.5 318.1,206.1 323.2,203.1 323.2,189 318.1,191.9 	"/>
	<polygon class="st6" points="318.1,228.9 318.1,234.4 323.2,231.5 323.2,217.3 318.1,220.2 	"/>
	<polygon class="st6" points="328.2,101.1 328.2,95.4 323.2,98.3 323.2,112.5 328.2,109.6 	"/>
	<polygon class="st6" points="328.2,129.4 328.2,123.8 323.2,126.7 323.2,140.9 328.2,137.9 	"/>
	<polygon class="st6" points="328.2,143.6 328.2,137.9 323.2,140.9 323.2,155 328.2,152.1 	"/>
	<polygon class="st6" points="328.2,157.8 328.2,152.1 323.2,155 323.2,169.2 328.2,166.3 	"/>
	<polygon class="st6" points="328.2,86.9 328.2,81.2 323.2,84.2 323.2,98.3 328.2,95.4 	"/>
	<polygon class="st6" points="328.2,58.6 328.2,54.4 328.2,54.2 323.2,57.2 323.2,70 328.2,67.1 	"/>
	<polygon class="st6" points="328.2,171.9 328.2,166.3 323.2,169.2 323.2,183.4 328.2,180.5 	"/>
	<polygon class="st6" points="328.2,72.7 328.2,67.1 323.2,70 323.2,84.2 328.2,81.2 	"/>
	<polygon class="st6" points="328.2,115.2 328.2,109.6 323.2,112.5 323.2,126.7 328.2,123.8 	"/>
	<polygon class="st6" points="328.2,186.1 328.2,180.5 323.2,183.4 323.2,197.6 328.2,194.6 	"/>
	<polygon class="st6" points="328.2,271.2 328.2,265.5 323.2,268.4 323.2,282.6 328.2,279.7 	"/>
	<polygon class="st6" points="328.2,242.8 328.2,237.1 323.2,240.1 323.2,254.2 328.2,251.3 	"/>
	<polygon class="st6" points="328.2,285.3 328.2,279.7 328.2,279.7 323.2,282.6 323.2,296.8 328.2,293.8 	"/>
	<polygon class="st6" points="328.2,384.5 328.2,378.9 323.2,381.8 323.2,396 328.2,393 	"/>
	<polygon class="st6" points="328.2,356.2 328.2,350.5 323.2,353.5 323.2,367.6 328.2,364.7 	"/>
	<polygon class="st6" points="328.2,407.2 323.2,410.2 323.2,423.7 328.2,420.8 328.2,412.9 	"/>
	<polygon class="st6" points="328.2,370.4 328.2,364.7 323.2,367.6 323.2,381.8 328.2,378.9 	"/>
	<polygon class="st6" points="328.2,313.7 328.2,308 323.2,310.9 323.2,325.1 328.2,322.2 	"/>
	<polygon class="st6" points="328.2,299.5 328.2,293.8 323.2,296.8 323.2,310.9 328.2,308 	"/>
	<polygon class="st6" points="328.2,327.8 328.2,322.2 323.2,325.1 323.2,339.3 328.2,336.4 	"/>
	<polygon class="st6" points="328.2,342 328.2,336.4 323.2,339.3 323.2,353.5 328.2,350.5 	"/>
	<polygon class="st6" points="328.2,398.7 328.2,393 323.2,396 323.2,410.2 328.2,407.2 	"/>
	<polygon class="st6" points="328.2,336.4 328.2,342 328.3,342 328.3,327.8 328.2,327.8 	"/>
	<polygon class="st6" points="328.2,378.9 328.2,384.5 328.3,384.5 328.3,370.3 328.2,370.4 	"/>
	<polygon class="st6" points="328.3,412.8 328.2,412.9 328.2,420.8 328.3,420.8 	"/>
	<polygon class="st6" points="328.2,285.3 328.2,279.7 328.2,285.3 	"/>
	<polygon class="st6" points="328.2,322.2 328.2,327.8 328.3,327.8 328.2,313.7 328.2,313.7 	"/>
	<polygon class="st6" points="328.2,308 328.2,313.7 328.2,313.7 328.2,299.5 328.2,299.5 	"/>
	<polygon class="st6" points="328.2,293.8 328.2,299.5 328.2,299.5 328.2,285.3 328.2,285.3 	"/>
	<polygon class="st6" points="328.2,407.2 328.2,412.9 328.3,412.8 328.3,398.7 328.2,398.7 	"/>
	<polygon class="st6" points="328.2,393 328.2,398.7 328.3,398.7 328.3,384.5 328.2,384.5 	"/>
	<polygon class="st6" points="328.2,350.5 328.2,356.2 328.3,356.1 328.3,342 328.2,342 	"/>
	<polygon class="st6" points="328.2,364.7 328.2,370.4 328.3,370.3 328.3,356.1 328.2,356.2 	"/>
	<polygon class="st6" points="328.2,257 328.2,251.3 323.2,254.2 323.2,268.4 328.2,265.5 	"/>
	<polygon class="st6" points="328.2,200.3 328.2,194.6 323.2,197.6 323.2,211.7 328.2,208.8 	"/>
	<polygon class="st6" points="328.2,214.5 328.2,208.8 323.2,211.7 323.2,225.9 328.2,223 	"/>
	<polygon class="st6" points="328.2,228.6 328.2,223 323.2,225.9 323.2,240.1 328.2,237.1 	"/>
	<polygon class="st6" points="308,135.5 308,141.1 313,138.2 313,124 308,126.9 	"/>
	<polygon class="st6" points="308,178 308,183.6 313,180.7 313,166.5 308,169.4 	"/>
	<polygon class="st6" points="308,163.9 308,169.4 313,166.5 313,152.3 308,155.3 	"/>
	<polygon class="st6" points="308,149.7 308,155.3 313,152.3 313,138.2 308,141.1 	"/>
	<polygon class="st6" points="308,107.2 308,112.7 313,109.8 313,95.6 308,98.6 	"/>
	<polygon class="st6" points="313,67.3 313,63.1 308,66 308,70.2 	"/>
	<polygon class="st6" points="308,78.8 308,84.4 313,81.5 313,67.3 308,70.2 	"/>
	<polygon class="st6" points="308,93 308,98.6 313,95.6 313,81.5 308,84.4 	"/>
	<polygon class="st6" points="308,121.3 308,126.9 313,124 313,109.8 308,112.7 	"/>
	<polygon class="st6" points="313.1,429.6 313,288.6 313,279.9 308,282.8 308,291.4 308,291.5 308,297 313,294.1 308,297 308,311.2 
		313,308.2 308,311.2 308,325.3 313,322.4 308,325.3 308,339.5 313,336.6 308,339.5 308,353.6 313,350.7 308,353.6 308,367.8 
		313,364.9 308,367.8 308,382 313,379.1 308,382 308,396.1 313,393.3 308,396.1 308,410.3 313,407.4 308,410.3 308,424.5 313,421.6 
		308,424.5 308.1,432.5 308,432.5 308,432.6 313.1,429.7 313.1,429.6 	"/>
	<polygon class="st6" points="308,277.3 308,282.8 313,279.9 313,265.7 308,268.6 	"/>
	<polygon class="st6" points="308,263.1 308,268.6 313,265.7 313,251.5 308,254.5 	"/>
	<polygon class="st6" points="308,192.2 308,197.8 313,194.8 313,180.7 308,183.6 	"/>
	<polygon class="st6" points="308,220.6 308,226.1 313,223.2 313,209 308,211.9 	"/>
	<polygon class="st6" points="308,248.9 308,254.5 313,251.5 313,237.4 308,240.3 	"/>
	<polygon class="st6" points="308,206.4 308,211.9 313,209 313,194.8 308,197.8 	"/>
	<polygon class="st6" points="308,234.7 308,240.3 313,237.4 313,223.2 308,226.1 	"/>
	<polygon class="st6" points="318.1,106.8 318.1,101.3 313.1,104.2 313.1,118.4 318.1,115.5 	"/>
	<polygon class="st6" points="318.1,135.2 318.1,129.6 313.1,132.6 313.1,146.8 318.1,143.8 	"/>
	<polygon class="st6" points="318.1,149.4 318.1,143.8 313.1,146.8 313.1,160.9 318.1,158 	"/>
	<polygon class="st6" points="318.1,163.5 318.1,158 313.1,160.9 313.1,175.1 318.1,172.2 	"/>
	<polygon class="st6" points="318.1,92.7 318.1,87.1 313.1,90.1 313.1,104.2 318.1,101.3 	"/>
	<polygon class="st6" points="318.1,64.3 318.1,60.2 318.1,60.1 313.1,63 313.1,75.9 318.1,73 	"/>
	<polygon class="st6" points="318.1,177.7 318.1,172.2 313.1,175.1 313.1,189.3 318.1,186.3 	"/>
	<polygon class="st6" points="318.1,78.5 318.1,73 313.1,75.9 313.1,90.1 318.1,87.1 	"/>
	<polygon class="st6" points="318.1,121 318.1,115.5 313.1,118.4 313.1,132.6 318.1,129.6 	"/>
	<polygon class="st6" points="318.1,191.9 318.1,186.3 313.1,189.3 313.1,203.4 318.1,200.5 	"/>
	<polygon class="st6" points="318.1,276.9 318.1,271.4 313.1,274.3 313.1,288.5 318.1,285.6 	"/>
	<polygon class="st6" points="318.1,248.6 318.1,243 313.1,246 313.1,260.1 318.1,257.2 	"/>
	<polygon class="st6" points="318.1,347.8 318.1,342.2 313.1,345.2 313.1,359.3 318.1,356.4 	"/>
	<polygon class="st6" points="318.1,319.4 318.1,313.9 313.1,316.8 313.1,331 318.1,328.1 	"/>
	<polygon class="st6" points="318.1,418.7 318.1,413.1 313.1,416 313.1,429.6 318.1,426.7 	"/>
	<polygon class="st6" points="318.1,305.3 318.1,299.7 313.1,302.7 313.1,316.8 318.1,313.9 	"/>
	<polygon class="st6" points="318.1,333.6 318.1,328.1 313.1,331 313.1,345.2 318.1,342.2 	"/>
	<polygon class="st6" points="318.1,291.1 318.1,285.6 318.1,285.6 313.1,288.5 313.1,302.7 318.1,299.7 	"/>
	<polygon class="st6" points="318.1,404.5 318.1,398.9 313.1,401.9 313.1,416 318.1,413.1 	"/>
	<polygon class="st6" points="318.1,362 318.1,356.4 313.1,359.3 313.1,373.5 318.1,370.6 	"/>
	<polygon class="st6" points="318.1,390.3 318.1,384.8 313.1,387.7 313.1,401.9 318.1,398.9 	"/>
	<polygon class="st6" points="318.1,376.1 318.1,370.6 313.1,373.5 313.1,387.7 318.1,384.8 	"/>
	<polygon class="st6" points="318.2,376.1 318.1,376.1 318.1,384.8 318.1,390.3 318.2,390.3 	"/>
	<polygon class="st6" points="318.1,319.4 318.1,319.4 318.1,328.1 318.1,333.6 318.1,333.6 	"/>
	<polygon class="st6" points="318.1,333.6 318.1,333.6 318.1,342.2 318.1,347.8 318.1,347.7 	"/>
	<polygon class="st6" points="318.1,305.3 318.1,305.3 318.1,313.9 318.1,319.4 318.1,319.4 	"/>
	<polygon class="st6" points="318.1,291.1 318.1,291.1 318.1,299.7 318.1,305.3 318.1,305.3 	"/>
	<polygon class="st6" points="318.2,404.4 318.1,404.5 318.1,413.1 318.1,418.7 318.2,418.6 	"/>
	<polygon class="st6" points="318.2,390.3 318.1,390.3 318.1,398.9 318.1,404.5 318.2,404.4 	"/>
	<polygon class="st6" points="318.1,347.7 318.1,347.8 318.1,356.4 318.1,362 318.1,361.9 	"/>
	<polygon class="st6" points="318.2,418.6 318.1,418.7 318.1,426.7 318.2,426.7 	"/>
	<polygon class="st6" points="318.1,361.9 318.1,362 318.1,370.6 318.1,376.1 318.2,376.1 	"/>
	<polygon class="st6" points="318.1,285.6 318.1,291.1 318.1,291.1 	"/>
	<polygon class="st6" points="318.1,262.8 318.1,257.2 313.1,260.1 313.1,274.3 318.1,271.4 	"/>
	<polygon class="st6" points="318.1,206.1 318.1,200.5 313.1,203.4 313.1,217.6 318.1,214.7 	"/>
	<polygon class="st6" points="318.1,220.2 318.1,214.7 313.1,217.6 313.1,231.8 318.1,228.9 	"/>
	<polygon class="st6" points="318.1,234.4 318.1,228.9 313.1,231.8 313.1,246 318.1,243 	"/>
	<polygon class="st6" points="302.9,129.9 297.9,132.8 297.9,147 302.9,144 	"/>
	<polygon class="st6" points="302.9,172.4 297.9,175.3 297.9,189.5 302.9,186.5 	"/>
	<polygon class="st6" points="302.9,158.2 297.9,161.1 297.9,175.3 302.9,172.4 	"/>
	<polygon class="st6" points="302.9,144 297.9,147 297.9,161.1 302.9,158.2 	"/>
	<polygon class="st6" points="302.9,101.5 297.9,104.4 297.9,118.6 302.9,115.7 	"/>
	<polygon class="st6" points="302.9,69 297.9,71.9 297.9,76.1 302.9,73.2 	"/>
	<polygon class="st6" points="302.9,73.2 297.9,76.1 297.9,90.3 302.9,87.3 	"/>
	<polygon class="st6" points="302.9,87.3 297.9,90.3 297.9,104.4 302.9,101.5 	"/>
	<polygon class="st6" points="302.9,115.7 297.9,118.6 297.9,132.8 302.9,129.9 	"/>
	<polygon class="st6" points="302.9,294.5 302.9,285.8 297.9,288.7 297.9,302.9 302.9,299.9 297.9,302.9 297.9,317 302.9,314.1 
		297.9,317 297.9,331.2 302.9,328.3 297.9,331.2 297.9,345.4 302.9,342.4 297.9,345.4 297.9,359.6 302.9,356.6 297.9,359.6 
		297.9,373.7 302.9,370.8 297.9,373.7 297.9,387.9 302.9,385 297.9,387.9 297.9,402.1 302.9,399.1 297.9,402.1 297.9,416.2 
		302.9,413.3 297.9,416.2 297.9,430.4 302.9,427.5 297.9,430.4 297.9,438.5 303,435.5 	"/>
	<polygon class="st6" points="302.9,271.6 297.9,274.5 297.9,288.7 302.9,285.8 	"/>
	<polygon class="st6" points="302.9,257.4 297.9,260.3 297.9,274.5 302.9,271.6 	"/>
	<polygon class="st6" points="302.9,186.5 297.9,189.5 297.9,203.6 302.9,200.7 	"/>
	<polygon class="st6" points="302.9,214.9 297.9,217.8 297.9,232 302.9,229.1 	"/>
	<polygon class="st6" points="302.9,243.2 297.9,246.2 297.9,260.3 302.9,257.4 	"/>
	<polygon class="st6" points="302.9,200.7 297.9,203.6 297.9,217.8 302.9,214.9 	"/>
	<polygon class="st6" points="302.9,229.1 297.9,232 297.9,246.2 302.9,243.2 	"/>
	<polygon class="st6" points="308,112.7 308,107.2 303,110.1 303,124.3 308,121.3 	"/>
	<polygon class="st6" points="308,141.1 308,135.5 303,138.4 303,152.6 308,149.7 	"/>
	<polygon class="st6" points="308,155.3 308,149.7 303,152.6 303,166.8 308,163.9 	"/>
	<polygon class="st6" points="308,169.4 308,163.9 303,166.8 303,181 308,178 	"/>
	<polygon class="st6" points="308,98.6 308,93 303,95.9 303,110.1 308,107.2 	"/>
	<polygon class="st6" points="308,70.2 308,66 308,66 303,68.9 303,81.8 308,78.8 	"/>
	<polygon class="st6" points="308,183.6 308,178 303,181 303,195.1 308,192.2 	"/>
	<polygon class="st6" points="308,84.4 308,78.8 303,81.8 303,95.9 308,93 	"/>
	<polygon class="st6" points="308,126.9 308,121.3 303,124.3 303,138.4 308,135.5 	"/>
	<polygon class="st6" points="308,197.8 308,192.2 303,195.1 303,209.3 308,206.4 	"/>
	<polygon class="st6" points="308,282.8 308,277.3 303,280.2 303,294.4 308,291.4 	"/>
	<polygon class="st6" points="308,254.5 308,248.9 303,251.8 303,266 308,263.1 	"/>
	<polygon class="st6" points="308,325.3 308,319.8 303,322.7 303,336.9 308,333.9 	"/>
	<polygon class="st6" points="308,311.2 308,305.6 303,308.5 303,322.7 308,319.8 	"/>
	<polygon class="st6" points="308,339.5 308,333.9 303,336.9 303,351 308,348.1 	"/>
	<polygon class="st6" points="308,297 308,291.5 308,291.4 303,294.4 303,308.5 308,305.6 	"/>
	<polygon class="st6" points="308,410.4 308,404.8 303,407.7 303,421.9 308,419 	"/>
	<polygon class="st6" points="308,419 303,421.9 303,435.5 308,432.5 308,424.5 	"/>
	<polygon class="st6" points="308,396.2 308,390.6 303,393.6 303,407.7 308,404.8 	"/>
	<polygon class="st6" points="308,382 308,376.5 303,379.4 303,393.6 308,390.6 	"/>
	<polygon class="st6" points="308,353.7 308,348.1 303,351 303,365.2 308,362.3 	"/>
	<polygon class="st6" points="308,367.9 308,362.3 303,365.2 303,379.4 308,376.5 	"/>
	<polygon class="st6" points="308,390.6 308,396.2 308,396.1 308,382 308,382 	"/>
	<polygon class="st6" points="308,404.8 308,410.4 308,410.3 308,396.1 308,396.2 	"/>
	<polygon class="st6" points="308,419 308,424.5 308,424.5 308,410.3 308,410.4 	"/>
	<polygon class="st6" points="308,376.5 308,382 308,382 308,367.8 308,367.9 	"/>
	<polygon class="st6" points="308,319.8 308,325.3 308,325.3 308,311.2 308,311.2 	"/>
	<polygon class="st6" points="308,297 308,291.5 308,297 	"/>
	<polygon class="st6" points="308,424.5 308,424.5 308,432.5 308.1,432.5 	"/>
	<polygon class="st6" points="308,305.6 308,311.2 308,311.2 308,297 308,297 	"/>
	<polygon class="st6" points="308,348.1 308,353.7 308,353.6 308,339.5 308,339.5 	"/>
	<polygon class="st6" points="308,333.9 308,339.5 308,339.5 308,325.3 308,325.3 	"/>
	<polygon class="st6" points="308,362.3 308,367.9 308,367.8 308,353.6 308,353.7 	"/>
	<polygon class="st6" points="308,268.6 308,263.1 303,266 303,280.2 308,277.3 	"/>
	<polygon class="st6" points="308,211.9 308,206.4 303,209.3 303,223.5 308,220.6 	"/>
	<polygon class="st6" points="308,226.1 308,220.6 303,223.5 303,237.7 308,234.7 	"/>
	<polygon class="st6" points="308,240.3 308,234.7 303,237.7 303,251.8 308,248.9 	"/>
	<polygon class="st6" points="368.8,466.8 368.8,472.5 373.9,469.5 373.9,455.4 368.8,458.3 	"/>
	<polygon class="st6" points="368.8,509.3 368.8,515 373.9,512.1 373.9,497.9 368.8,500.8 	"/>
	<polygon class="st6" points="368.8,495.2 368.8,500.8 373.9,497.9 373.9,483.7 368.8,486.6 	"/>
	<polygon class="st6" points="368.8,481 368.8,486.6 373.9,483.7 373.9,469.5 368.8,472.5 	"/>
	<polygon class="st6" points="368.8,438.5 368.8,444.1 373.9,441.2 373.9,427 368.8,430 	"/>
	<polygon class="st6" points="368.8,397.5 368.8,401.6 373.9,398.7 373.9,394.5 373.8,394.6 373.8,394.6 	"/>
	<polygon class="st6" points="368.8,397.5 373.8,394.6 373.8,394.6 368.8,397.4 	"/>
	<polygon class="st6" points="368.8,410.1 368.8,415.8 373.9,412.8 373.9,398.7 368.8,401.6 	"/>
	<polygon class="st6" points="368.8,424.3 368.8,430 373.9,427 373.9,412.8 368.8,415.8 	"/>
	<polygon class="st6" points="368.8,452.6 368.8,458.3 373.9,455.4 373.9,441.2 368.8,444.1 	"/>
	<polygon class="st6" points="373.9,611.3 368.8,614.2 368.8,622.7 368.8,622.8 368.8,628.4 373.9,625.4 368.8,628.4 368.8,642.5 
		373.9,639.6 368.8,642.5 368.8,656.7 373.9,653.8 368.8,656.7 368.9,670.9 373.9,668 368.9,670.9 368.9,685.1 373.9,682.1 
		368.9,685.1 368.9,699.2 373.9,696.3 368.9,699.2 368.9,713.4 373.9,710.5 368.9,713.4 368.9,727.6 373.9,724.7 368.9,727.6 
		368.9,741.8 373.9,738.8 368.9,741.8 368.9,755.9 373.9,753 368.9,755.9 368.9,763.8 368.8,763.9 368.8,764 373.9,761.1 373.9,620 
			"/>
	<polygon class="st6" points="368.8,608.5 368.8,614.2 373.9,611.3 373.9,597.1 368.8,600 	"/>
	<polygon class="st6" points="368.8,594.4 368.8,600 373.9,597.1 373.9,582.9 368.8,585.9 	"/>
	<polygon class="st6" points="368.8,523.5 368.8,529.2 373.9,526.2 373.9,512.1 368.8,515 	"/>
	<polygon class="st6" points="368.8,551.8 368.8,557.5 373.9,554.6 373.9,540.4 368.8,543.3 	"/>
	<polygon class="st6" points="368.8,580.2 368.8,585.9 373.9,582.9 373.9,568.8 368.8,571.7 	"/>
	<polygon class="st6" points="368.8,537.7 368.8,543.3 373.9,540.4 373.9,526.2 368.8,529.2 	"/>
	<polygon class="st6" points="368.8,566 368.8,571.7 373.9,568.8 373.9,554.6 368.8,557.5 	"/>
	<polygon class="st6" points="373.9,449.8 379,446.9 379,432.7 373.9,435.6 	"/>
	<polygon class="st6" points="373.9,478.1 379,475.2 379,461 373.9,464 	"/>
	<polygon class="st6" points="373.9,492.3 379,489.4 379,475.2 373.9,478.1 	"/>
	<polygon class="st6" points="373.9,506.5 379,503.6 379,489.4 373.9,492.3 	"/>
	<polygon class="st6" points="373.9,435.6 379,432.7 379,418.5 373.9,421.4 	"/>
	<polygon class="st6" points="379,404.3 379,391.5 378.9,391.5 378.9,391.6 373.9,394.5 373.9,407.3 	"/>
	<polygon class="st6" points="378.9,391.5 373.9,394.4 373.9,394.5 378.9,391.6 	"/>
	<polygon class="st6" points="373.9,520.7 379,517.7 379,503.6 373.9,506.5 	"/>
	<polygon class="st6" points="373.9,421.4 379,418.5 379,404.3 373.9,407.3 	"/>
	<polygon class="st6" points="373.9,464 379,461 379,446.9 373.9,449.8 	"/>
	<polygon class="st6" points="373.9,534.8 379,531.9 379,517.7 373.9,520.7 	"/>
	<polygon class="st6" points="373.9,619.9 379,616.9 379,602.8 373.9,605.7 	"/>
	<polygon class="st6" points="373.9,591.5 379,588.6 379,574.4 373.9,577.4 	"/>
	<polygon class="st6" points="373.9,634 379,631.1 373.9,634 373.9,648.2 379,645.3 373.9,648.2 373.9,662.4 379,659.5 373.9,662.4 
		373.9,676.6 379,673.6 373.9,676.6 373.9,690.7 379,687.8 373.9,690.7 373.9,704.9 379,702 373.9,704.9 373.9,719.1 379,716.2 
		373.9,719.1 373.9,733.3 379,730.3 373.9,733.3 373.9,747.4 379,744.5 373.9,747.4 373.9,761 379,758.1 379,617 379,616.9 
		373.9,619.9 	"/>
	<polygon class="st6" points="373.9,605.7 379,602.8 379,588.6 373.9,591.5 	"/>
	<polygon class="st6" points="373.9,549 379,546.1 379,531.9 373.9,534.8 	"/>
	<polygon class="st6" points="373.9,563.2 379,560.2 379,546.1 373.9,549 	"/>
	<polygon class="st6" points="373.9,577.4 379,574.4 379,560.2 373.9,563.2 	"/>
	<polygon class="st6" points="358.7,472.7 358.7,478.2 363.8,475.3 363.8,461.1 358.7,464.1 	"/>
	<polygon class="st6" points="358.7,515.2 358.7,520.8 363.8,517.8 363.8,503.7 358.7,506.6 	"/>
	<polygon class="st6" points="358.7,501 358.7,506.6 363.8,503.7 363.8,489.5 358.7,492.4 	"/>
	<polygon class="st6" points="358.7,486.9 358.7,492.4 363.8,489.5 363.8,475.3 358.7,478.2 	"/>
	<polygon class="st6" points="358.7,444.4 358.7,449.9 363.8,447 363.8,432.8 358.7,435.7 	"/>
	<polygon class="st6" points="362.7,400.9 358.7,403.2 358.7,407.4 363.8,404.4 363.8,400.3 363.7,400.3 363.7,400.3 	"/>
	<polygon class="st6" points="363.7,400.3 363.7,400.3 362.7,400.9 	"/>
	<polygon class="st6" points="358.7,416 358.7,421.6 363.8,418.6 363.8,404.4 358.7,407.4 	"/>
	<polygon class="st6" points="358.7,430.2 358.7,435.7 363.8,432.8 363.8,418.6 358.7,421.6 	"/>
	<polygon class="st6" points="358.7,458.5 358.7,464.1 363.8,461.1 363.8,447 358.7,449.9 	"/>
	<polygon class="st6" points="363.8,617 358.7,620 358.7,628.6 358.7,628.7 358.7,634.1 363.8,631.2 358.7,634.1 358.7,648.3 
		363.8,645.4 358.7,648.3 358.7,662.5 363.8,659.6 358.7,662.5 358.7,676.7 363.8,673.7 358.7,676.7 358.7,690.8 363.8,687.9 
		358.7,690.8 358.7,705 363.8,702.1 358.7,705 358.8,719.2 363.8,716.3 358.8,719.2 358.8,733.4 363.8,730.4 358.8,733.4 
		358.8,747.5 363.8,744.6 358.8,747.5 358.8,761.7 363.8,758.8 358.8,761.7 358.8,769.7 358.7,769.8 358.7,769.8 363.8,766.8 
		363.8,625.8 	"/>
	<polygon class="st6" points="358.7,614.4 358.7,620 363.8,617 363.8,602.9 358.7,605.8 	"/>
	<polygon class="st6" points="358.7,600.3 358.7,605.8 363.8,602.9 363.8,588.7 358.7,591.6 	"/>
	<polygon class="st6" points="358.7,529.4 358.7,534.9 363.8,532 363.8,517.8 358.7,520.8 	"/>
	<polygon class="st6" points="358.7,557.7 358.7,563.3 363.8,560.4 363.8,546.2 358.7,549.1 	"/>
	<polygon class="st6" points="358.7,586.1 358.7,591.6 363.8,588.7 363.8,574.5 358.7,577.5 	"/>
	<polygon class="st6" points="358.7,543.6 358.7,549.1 363.8,546.2 363.8,532 358.7,534.9 	"/>
	<polygon class="st6" points="358.7,571.9 358.7,577.5 363.8,574.5 363.8,560.4 358.7,563.3 	"/>
	<polygon class="st6" points="368.8,444.1 368.8,438.5 363.8,441.4 363.8,455.6 368.8,452.6 	"/>
	<polygon class="st6" points="368.8,472.5 368.8,466.8 363.8,469.7 363.8,483.9 368.8,481 	"/>
	<polygon class="st6" points="368.8,486.6 368.8,481 363.8,483.9 363.8,498.1 368.8,495.2 	"/>
	<polygon class="st6" points="368.8,500.8 368.8,495.2 363.8,498.1 363.8,512.3 368.8,509.3 	"/>
	<polygon class="st6" points="368.8,430 368.8,424.3 363.8,427.2 363.8,441.4 368.8,438.5 	"/>
	<polygon class="st6" points="368.8,401.6 368.8,397.5 368.7,397.5 368.7,397.4 367.8,397.9 363.8,400.2 363.8,413 368.8,410.1 	"/>
	<polygon class="st6" points="368.8,397.3 368.8,397.3 368.8,397.3 368.7,397.4 368.7,397.5 368.8,397.5 368.8,397.4 	"/>
	<polygon class="st6" points="368.7,397.4 367.8,397.9 368.7,397.4 	"/>
	<polygon class="st6" points="368.8,397.3 368.7,397.4 368.7,397.4 368.8,397.3 	"/>
	<polygon class="st6" points="368.8,515 368.8,509.3 363.8,512.3 363.8,526.4 368.8,523.5 	"/>
	<polygon class="st6" points="368.8,415.8 368.8,410.1 363.8,413 363.8,427.2 368.8,424.3 	"/>
	<polygon class="st6" points="368.8,458.3 368.8,452.6 363.8,455.6 363.8,469.7 368.8,466.8 	"/>
	<polygon class="st6" points="368.8,529.2 368.8,523.5 363.8,526.4 363.8,540.6 368.8,537.7 	"/>
	<polygon class="st6" points="368.8,614.2 368.8,608.5 363.8,611.5 363.8,625.6 368.8,622.7 	"/>
	<polygon class="st6" points="368.8,585.9 368.8,580.2 363.8,583.1 363.8,597.3 368.8,594.4 	"/>
	<polygon class="st6" points="368.8,656.7 368.8,651.1 363.8,654 363.8,668.2 368.8,665.2 	"/>
	<polygon class="st6" points="368.8,685.1 368.8,679.4 363.8,682.3 363.8,696.5 368.8,693.6 	"/>
	<polygon class="st6" points="368.8,699.2 368.8,693.6 363.8,696.5 363.8,710.7 368.8,707.8 	"/>
	<polygon class="st6" points="368.8,670.9 368.8,665.2 363.8,668.2 363.8,682.3 368.8,679.4 	"/>
	<polygon class="st6" points="368.8,642.5 368.8,636.9 363.8,639.8 363.8,654 368.8,651.1 	"/>
	<polygon class="st6" points="368.8,750.3 363.8,753.2 363.8,766.8 368.8,763.9 368.8,755.9 	"/>
	<polygon class="st6" points="368.8,628.4 368.8,622.8 368.8,622.7 363.8,625.6 363.8,639.8 368.8,636.9 	"/>
	<polygon class="st6" points="368.8,741.8 368.8,736.1 363.8,739 363.8,753.2 368.8,750.3 	"/>
	<polygon class="st6" points="368.8,727.6 368.8,721.9 363.8,724.9 363.8,739 368.8,736.1 	"/>
	<polygon class="st6" points="368.8,713.4 368.8,707.8 363.8,710.7 363.8,724.9 368.8,721.9 	"/>
	<polygon class="st6" points="368.8,736.1 368.8,741.8 368.9,741.8 368.9,727.6 368.8,727.6 	"/>
	<polygon class="st6" points="368.8,721.9 368.8,727.6 368.9,727.6 368.9,713.4 368.8,713.4 	"/>
	<polygon class="st6" points="368.8,651.1 368.8,656.7 368.8,656.7 368.8,642.5 368.8,642.5 	"/>
	<polygon class="st6" points="368.8,707.8 368.8,713.4 368.9,713.4 368.9,699.2 368.8,699.2 	"/>
	<polygon class="st6" points="368.9,755.9 368.8,755.9 368.8,763.9 368.9,763.8 	"/>
	<polygon class="st6" points="368.8,679.4 368.8,685.1 368.9,685.1 368.9,670.9 368.8,670.9 	"/>
	<polygon class="st6" points="368.8,665.2 368.8,670.9 368.9,670.9 368.8,656.7 368.8,656.7 	"/>
	<polygon class="st6" points="368.8,693.6 368.8,699.2 368.9,699.2 368.9,685.1 368.8,685.1 	"/>
	<polygon class="st6" points="368.8,750.3 368.8,755.9 368.9,755.9 368.9,741.8 368.8,741.8 	"/>
	<polygon class="st6" points="368.8,628.4 368.8,622.8 368.8,628.4 	"/>
	<polygon class="st6" points="368.8,636.9 368.8,642.5 368.8,642.5 368.8,628.4 368.8,628.4 	"/>
	<polygon class="st6" points="368.8,600 368.8,594.4 363.8,597.3 363.8,611.5 368.8,608.5 	"/>
	<polygon class="st6" points="368.8,543.3 368.8,537.7 363.8,540.6 363.8,554.8 368.8,551.8 	"/>
	<polygon class="st6" points="368.8,557.5 368.8,551.8 363.8,554.8 363.8,569 368.8,566 	"/>
	<polygon class="st6" points="368.8,571.7 368.8,566 363.8,569 363.8,583.1 368.8,580.2 	"/>
	<polygon class="st6" points="348.6,478.6 348.6,484.1 353.6,481.2 353.6,467 348.6,470 	"/>
	<polygon class="st6" points="348.6,521.1 348.6,526.7 353.6,523.7 353.6,509.5 348.6,512.5 	"/>
	<polygon class="st6" points="348.6,506.9 348.6,512.5 353.6,509.5 353.6,495.4 348.6,498.3 	"/>
	<polygon class="st6" points="348.6,492.7 348.6,498.3 353.6,495.4 353.6,481.2 348.6,484.1 	"/>
	<polygon class="st6" points="348.6,450.2 348.6,455.8 353.6,452.9 353.6,438.7 348.6,441.6 	"/>
	<polygon class="st6" points="348.6,409.1 348.6,413.3 353.6,410.3 353.6,406.2 353.6,406.2 353.6,406.2 	"/>
	<polygon class="st6" points="348.6,409.1 353.6,406.2 353.6,406.2 348.6,409.1 	"/>
	<polygon class="st6" points="348.6,421.9 348.6,427.4 353.6,424.5 353.6,410.3 348.6,413.3 	"/>
	<polygon class="st6" points="348.6,436.1 348.6,441.6 353.6,438.7 353.6,424.5 348.6,427.4 	"/>
	<polygon class="st6" points="348.6,464.4 348.6,470 353.6,467 353.6,452.9 348.6,455.8 	"/>
	<polygon class="st6" points="353.6,622.9 348.6,625.9 348.6,634.5 348.6,634.6 348.6,640 353.6,637.1 348.6,640 348.6,654.2 
		353.6,651.3 348.6,654.2 348.6,668.4 353.6,665.5 348.6,668.4 348.6,682.6 353.6,679.6 348.6,682.6 348.6,696.7 353.6,693.8 
		348.6,696.7 348.6,710.9 353.6,708 348.6,710.9 348.6,725.1 353.6,722.1 348.6,725.1 348.6,739.2 353.6,736.3 348.6,739.2 
		348.6,753.4 353.6,750.5 348.6,753.4 348.6,767.6 353.6,764.7 348.6,767.6 348.7,775.6 348.6,775.6 348.6,775.7 353.7,772.7 
		353.6,631.7 	"/>
	<polygon class="st6" points="348.6,620.3 348.6,625.9 353.6,622.9 353.6,608.8 348.6,611.7 	"/>
	<polygon class="st6" points="348.6,606.1 348.6,611.7 353.6,608.8 353.6,594.6 348.6,597.5 	"/>
	<polygon class="st6" points="348.6,535.3 348.6,540.8 353.6,537.9 353.6,523.7 348.6,526.7 	"/>
	<polygon class="st6" points="348.6,563.6 348.6,569.2 353.6,566.2 353.6,552.1 348.6,555 	"/>
	<polygon class="st6" points="348.6,592 348.6,597.5 353.6,594.6 353.6,580.4 348.6,583.3 	"/>
	<polygon class="st6" points="348.6,549.4 348.6,555 353.6,552.1 353.6,537.9 348.6,540.8 	"/>
	<polygon class="st6" points="348.6,577.8 348.6,583.3 353.6,580.4 353.6,566.2 348.6,569.2 	"/>
	<polygon class="st6" points="358.7,449.9 358.7,444.4 353.7,447.3 353.7,461.5 358.7,458.5 	"/>
	<polygon class="st6" points="358.7,478.2 358.7,472.7 353.7,475.6 353.7,489.8 358.7,486.9 	"/>
	<polygon class="st6" points="358.7,492.4 358.7,486.9 353.7,489.8 353.7,504 358.7,501 	"/>
	<polygon class="st6" points="358.7,506.6 358.7,501 353.7,504 353.7,518.1 358.7,515.2 	"/>
	<polygon class="st6" points="358.7,435.7 358.7,430.2 353.7,433.1 353.7,447.3 358.7,444.4 	"/>
	<polygon class="st6" points="358.7,407.4 358.7,403.2 358.7,403.2 358.6,403.3 358.6,403.3 353.7,406.1 353.7,418.9 358.7,416 	"/>
	<polygon class="st6" points="358.6,403.2 358.6,403.2 358.6,403.3 358.6,403.3 358.7,403.2 358.7,403.2 	"/>
	<polygon class="st6" points="358.6,403.3 353.7,406.1 353.7,406.1 358.6,403.3 	"/>
	<polygon class="st6" points="358.6,403.2 358.6,403.3 358.6,403.3 358.6,403.2 	"/>
	<polygon class="st6" points="358.7,520.8 358.7,515.2 353.7,518.1 353.7,532.3 358.7,529.4 	"/>
	<polygon class="st6" points="358.7,421.6 358.7,416 353.7,418.9 353.7,433.1 358.7,430.2 	"/>
	<polygon class="st6" points="358.7,464.1 358.7,458.5 353.7,461.5 353.7,475.6 358.7,472.7 	"/>
	<polygon class="st6" points="358.7,534.9 358.7,529.4 353.7,532.3 353.7,546.5 358.7,543.6 	"/>
	<polygon class="st6" points="358.7,620 358.7,614.4 353.7,617.4 353.7,631.5 358.7,628.6 	"/>
	<polygon class="st6" points="358.7,591.6 358.7,586.1 353.7,589 353.7,603.2 358.7,600.3 	"/>
	<polygon class="st6" points="358.7,690.8 358.7,685.3 353.7,688.2 353.7,702.4 358.7,699.5 	"/>
	<polygon class="st6" points="358.7,676.7 358.7,671.1 353.7,674 353.7,688.2 358.7,685.3 	"/>
	<polygon class="st6" points="358.7,662.5 358.7,656.9 353.7,659.9 353.7,674 358.7,671.1 	"/>
	<polygon class="st6" points="358.7,705 358.7,699.5 353.7,702.4 353.7,716.6 358.7,713.6 	"/>
	<polygon class="st6" points="358.7,719.2 358.7,713.6 353.7,716.6 353.7,730.7 358.7,727.8 	"/>
	<polygon class="st6" points="358.7,747.5 358.7,742 353.7,744.9 353.7,759.1 358.7,756.2 	"/>
	<polygon class="st6" points="358.7,648.3 358.7,642.8 353.7,645.7 353.7,659.9 358.7,656.9 	"/>
	<polygon class="st6" points="358.7,733.4 358.7,727.8 353.7,730.7 353.7,744.9 358.7,742 	"/>
	<polygon class="st6" points="358.7,756.2 353.7,759.1 353.7,772.7 358.7,769.8 358.7,761.7 	"/>
	<polygon class="st6" points="358.7,634.1 358.7,628.7 358.7,628.6 353.7,631.5 353.7,645.7 358.7,642.8 	"/>
	<polygon class="st6" points="358.8,761.7 358.7,761.7 358.7,769.8 358.8,769.7 	"/>
	<polygon class="st6" points="358.7,742 358.7,747.5 358.8,747.5 358.8,733.4 358.7,733.4 	"/>
	<polygon class="st6" points="358.7,671.1 358.7,676.7 358.7,676.7 358.7,662.5 358.7,662.5 	"/>
	<polygon class="st6" points="358.7,727.8 358.7,733.4 358.8,733.4 358.8,719.2 358.7,719.2 	"/>
	<polygon class="st6" points="358.7,713.6 358.7,719.2 358.8,719.2 358.7,705 358.7,705 	"/>
	<polygon class="st6" points="358.7,699.5 358.7,705 358.7,705 358.7,690.8 358.7,690.8 	"/>
	<polygon class="st6" points="358.7,756.2 358.7,761.7 358.8,761.7 358.8,747.5 358.7,747.5 	"/>
	<polygon class="st6" points="358.7,634.1 358.7,628.7 358.7,634.1 	"/>
	<polygon class="st6" points="358.7,642.8 358.7,648.3 358.7,648.3 358.7,634.1 358.7,634.1 	"/>
	<polygon class="st6" points="358.7,656.9 358.7,662.5 358.7,662.5 358.7,648.3 358.7,648.3 	"/>
	<polygon class="st6" points="358.7,685.3 358.7,690.8 358.7,690.8 358.7,676.7 358.7,676.7 	"/>
	<polygon class="st6" points="358.7,605.8 358.7,600.3 353.7,603.2 353.7,617.4 358.7,614.4 	"/>
	<polygon class="st6" points="358.7,549.1 358.7,543.6 353.7,546.5 353.7,560.7 358.7,557.7 	"/>
	<polygon class="st6" points="358.7,563.3 358.7,557.7 353.7,560.7 353.7,574.8 358.7,571.9 	"/>
	<polygon class="st6" points="358.7,577.5 358.7,571.9 353.7,574.8 353.7,589 358.7,586.1 	"/>
	<polygon class="st6" points="343.5,472.9 338.5,475.8 338.5,490 343.5,487.1 	"/>
	<polygon class="st6" points="343.5,515.4 338.5,518.4 338.5,532.5 343.5,529.6 	"/>
	<polygon class="st6" points="343.5,501.2 338.5,504.2 338.5,518.4 343.5,515.4 	"/>
	<polygon class="st6" points="343.5,487.1 338.5,490 338.5,504.2 343.5,501.2 	"/>
	<polygon class="st6" points="343.5,444.6 338.5,447.5 338.5,461.7 343.5,458.7 	"/>
	<polygon class="st6" points="343.5,412 343.4,412.1 343.4,412.1 342.5,412.7 338.5,415 338.5,419.1 343.5,416.2 	"/>
	<polygon class="st6" points="343.4,412.1 342.5,412.7 343.4,412.1 	"/>
	<polygon class="st6" points="343.5,416.2 338.5,419.1 338.5,433.3 343.5,430.4 	"/>
	<polygon class="st6" points="343.5,430.4 338.5,433.3 338.5,447.5 343.5,444.6 	"/>
	<polygon class="st6" points="343.5,458.7 338.5,461.7 338.5,475.8 343.5,472.9 	"/>
	<polygon class="st6" points="343.5,628.8 338.5,631.7 338.5,645.9 343.5,643 338.5,645.9 338.5,660.1 343.5,657.2 338.5,660.1 
		338.5,674.3 343.5,671.3 338.5,674.3 338.5,688.4 343.5,685.5 338.5,688.4 338.5,702.6 343.5,699.7 338.5,702.6 338.5,716.8 
		343.5,713.8 338.5,716.8 338.5,730.9 343.5,728 338.5,730.9 338.5,745.1 343.5,742.2 338.5,745.1 338.5,759.3 343.5,756.4 
		338.5,759.3 338.5,773.5 343.5,770.5 338.5,773.5 338.5,781.5 343.6,778.6 343.5,637.6 	"/>
	<polygon class="st6" points="343.5,614.6 338.5,617.6 338.5,631.7 343.5,628.8 	"/>
	<polygon class="st6" points="343.5,600.5 338.5,603.4 338.5,617.6 343.5,614.6 	"/>
	<polygon class="st6" points="343.5,529.6 338.5,532.5 338.5,546.7 343.5,543.8 	"/>
	<polygon class="st6" points="343.5,557.9 338.5,560.9 338.5,575 343.5,572.1 	"/>
	<polygon class="st6" points="343.5,586.3 338.5,589.2 338.5,603.4 343.5,600.5 	"/>
	<polygon class="st6" points="343.5,543.8 338.5,546.7 338.5,560.9 343.5,557.9 	"/>
	<polygon class="st6" points="343.5,572.1 338.5,575 338.5,589.2 343.5,586.3 	"/>
	<polygon class="st6" points="348.6,455.8 348.6,450.2 343.6,453.2 343.6,467.3 348.6,464.4 	"/>
	<polygon class="st6" points="348.6,484.1 348.6,478.6 343.6,481.5 343.6,495.7 348.6,492.7 	"/>
	<polygon class="st6" points="348.6,498.3 348.6,492.7 343.6,495.7 343.6,509.8 348.6,506.9 	"/>
	<polygon class="st6" points="348.6,512.5 348.6,506.9 343.6,509.8 343.6,524 348.6,521.1 	"/>
	<polygon class="st6" points="348.6,441.6 348.6,436.1 343.6,439 343.6,453.2 348.6,450.2 	"/>
	<polygon class="st6" points="348.6,413.3 348.6,409.1 348.5,409.2 348.5,409.1 347.5,409.7 343.6,412 343.6,424.8 348.6,421.9 	"/>
	<polygon class="st6" points="348.6,409 348.5,409.1 348.5,409.1 348.5,409.1 348.5,409.2 348.6,409.1 348.6,409.1 	"/>
	<polygon class="st6" points="348.5,409.1 347.5,409.7 348.5,409.1 	"/>
	<polygon class="st6" points="348.5,409.1 348.5,409.1 348.5,409.1 348.5,409.1 	"/>
	<polygon class="st6" points="348.6,526.7 348.6,521.1 343.6,524 343.6,538.2 348.6,535.3 	"/>
	<polygon class="st6" points="348.6,427.4 348.6,421.9 343.6,424.8 343.6,439 348.6,436.1 	"/>
	<polygon class="st6" points="348.6,470 348.6,464.4 343.6,467.3 343.6,481.5 348.6,478.6 	"/>
	<polygon class="st6" points="348.6,540.8 348.6,535.3 343.6,538.2 343.6,552.4 348.6,549.4 	"/>
	<polygon class="st6" points="348.6,625.9 348.6,620.3 343.6,623.2 343.6,637.4 348.6,634.5 	"/>
	<polygon class="st6" points="348.6,597.5 348.6,592 343.6,594.9 343.6,609.1 348.6,606.1 	"/>
	<polygon class="st6" points="348.6,753.4 348.6,747.9 343.6,750.8 343.6,765 348.6,762 	"/>
	<polygon class="st6" points="348.6,762 343.6,765 343.6,778.5 348.6,775.6 348.6,767.6 	"/>
	<polygon class="st6" points="348.6,739.2 348.6,733.7 343.6,736.6 343.6,750.8 348.6,747.9 	"/>
	<polygon class="st6" points="348.6,640 348.6,634.6 348.6,634.5 343.6,637.4 343.6,651.6 348.6,648.6 	"/>
	<polygon class="st6" points="348.6,668.4 348.6,662.8 343.6,665.7 343.6,679.9 348.6,677 	"/>
	<polygon class="st6" points="348.6,654.2 348.6,648.6 343.6,651.6 343.6,665.7 348.6,662.8 	"/>
	<polygon class="st6" points="348.6,682.6 348.6,677 343.6,679.9 343.6,694.1 348.6,691.2 	"/>
	<polygon class="st6" points="348.6,696.7 348.6,691.2 343.6,694.1 343.6,708.3 348.6,705.3 	"/>
	<polygon class="st6" points="348.6,710.9 348.6,705.3 343.6,708.3 343.6,722.4 348.6,719.5 	"/>
	<polygon class="st6" points="348.6,725.1 348.6,719.5 343.6,722.4 343.6,736.6 348.6,733.7 	"/>
	<polygon class="st6" points="348.6,719.5 348.6,725.1 348.6,725.1 348.6,710.9 348.6,710.9 	"/>
	<polygon class="st6" points="348.6,767.6 348.6,767.6 348.6,775.6 348.7,775.6 	"/>
	<polygon class="st6" points="348.6,691.2 348.6,696.7 348.6,696.7 348.6,682.6 348.6,682.6 	"/>
	<polygon class="st6" points="348.6,662.8 348.6,668.4 348.6,668.4 348.6,654.2 348.6,654.2 	"/>
	<polygon class="st6" points="348.6,640 348.6,634.6 348.6,640 	"/>
	<polygon class="st6" points="348.6,648.6 348.6,654.2 348.6,654.2 348.6,640 348.6,640 	"/>
	<polygon class="st6" points="348.6,677 348.6,682.6 348.6,682.6 348.6,668.4 348.6,668.4 	"/>
	<polygon class="st6" points="348.6,762 348.6,767.6 348.6,767.6 348.6,753.4 348.6,753.4 	"/>
	<polygon class="st6" points="348.6,747.9 348.6,753.4 348.6,753.4 348.6,739.2 348.6,739.2 	"/>
	<polygon class="st6" points="348.6,705.3 348.6,710.9 348.6,710.9 348.6,696.7 348.6,696.7 	"/>
	<polygon class="st6" points="348.6,733.7 348.6,739.2 348.6,739.2 348.6,725.1 348.6,725.1 	"/>
	<polygon class="st6" points="348.6,611.7 348.6,606.1 343.6,609.1 343.6,623.2 348.6,620.3 	"/>
	<polygon class="st6" points="348.6,555 348.6,549.4 343.6,552.4 343.6,566.5 348.6,563.6 	"/>
	<polygon class="st6" points="348.6,569.2 348.6,563.6 343.6,566.5 343.6,580.7 348.6,577.8 	"/>
	<polygon class="st6" points="348.6,583.3 348.6,577.8 343.6,580.7 343.6,594.9 348.6,592 	"/>
	<polygon class="st6" points="328.2,490.4 328.2,496 333.2,493.1 333.2,478.9 328.2,481.8 	"/>
	<polygon class="st6" points="328.2,532.9 328.2,538.5 333.2,535.6 333.2,521.4 328.2,524.4 	"/>
	<polygon class="st6" points="328.2,518.7 328.2,524.4 333.2,521.4 333.2,507.3 328.2,510.2 	"/>
	<polygon class="st6" points="328.2,504.5 328.2,510.2 333.2,507.3 333.2,493.1 328.2,496 	"/>
	<polygon class="st6" points="328.2,462 328.2,467.7 333.2,464.7 333.2,450.6 328.2,453.5 	"/>
	<polygon class="st6" points="333.2,422.2 333.2,418.1 328.2,421 328.2,425.2 	"/>
	<polygon class="st6" points="328.2,433.7 328.2,439.3 333.2,436.4 333.2,422.2 328.2,425.2 	"/>
	<polygon class="st6" points="328.2,447.8 328.2,453.5 333.2,450.6 333.2,436.4 328.2,439.3 	"/>
	<polygon class="st6" points="328.2,476.2 328.2,481.8 333.2,478.9 333.2,464.7 328.2,467.7 	"/>
	<polygon class="st6" points="333.2,634.8 328.2,637.8 328.2,646.3 328.2,646.3 328.2,651.9 333.2,649 328.2,651.9 328.2,666.1 
		333.2,663.2 328.2,666.1 328.2,680.3 333.2,677.3 328.2,680.3 328.2,694.4 333.2,691.5 328.2,694.4 328.2,708.6 333.2,705.7 
		328.2,708.6 328.2,722.8 333.2,719.9 328.2,722.8 328.2,737 333.2,734 328.2,737 328.2,751.1 333.2,748.2 328.2,751.1 328.3,765.3 
		333.2,762.4 328.3,765.3 328.3,779.5 333.2,776.6 328.3,779.5 328.3,787.4 328.2,787.4 328.2,787.6 333.3,784.6 333.2,643.6 	"/>
	<polygon class="st6" points="328.2,632.1 328.2,637.8 333.2,634.8 333.2,620.6 328.2,623.6 	"/>
	<polygon class="st6" points="328.2,617.9 328.2,623.6 333.2,620.6 333.2,606.5 328.2,609.4 	"/>
	<polygon class="st6" points="328.2,547.1 328.2,552.7 333.2,549.8 333.2,535.6 328.2,538.5 	"/>
	<polygon class="st6" points="328.2,575.4 328.2,581.1 333.2,578.1 333.2,564 328.2,566.9 	"/>
	<polygon class="st6" points="328.2,603.7 328.2,609.4 333.2,606.5 333.2,592.3 328.2,595.2 	"/>
	<polygon class="st6" points="328.2,561.2 328.2,566.9 333.2,564 333.2,549.8 328.2,552.7 	"/>
	<polygon class="st6" points="328.2,589.6 328.2,595.2 333.2,592.3 333.2,578.1 328.2,581.1 	"/>
	<polygon class="st6" points="333.3,473.3 338.3,470.4 338.3,456.2 333.3,459.2 	"/>
	<polygon class="st6" points="333.3,501.7 338.3,498.8 338.3,484.6 333.3,487.5 	"/>
	<polygon class="st6" points="333.3,515.9 338.3,512.9 338.3,498.8 333.3,501.7 	"/>
	<polygon class="st6" points="333.3,530 338.3,527.1 338.3,512.9 333.3,515.9 	"/>
	<polygon class="st6" points="333.3,459.2 338.3,456.2 338.3,442.1 333.3,445 	"/>
	<polygon class="st6" points="333.3,418 333.3,418 333.3,418 333.3,430.8 338.3,427.9 338.3,415.1 335.8,416.5 	"/>
	<polygon class="st6" points="333.3,418 333.3,418 333.3,418 333.3,418 	"/>
	<polygon class="st6" points="335.8,416.5 338.3,415.1 338.3,415 	"/>
	<polygon class="st6" points="333.3,544.2 338.3,541.3 338.3,527.1 333.3,530 	"/>
	<polygon class="st6" points="333.3,445 338.3,442.1 338.3,427.9 333.3,430.8 	"/>
	<polygon class="st6" points="333.3,487.5 338.3,484.6 338.3,470.4 333.3,473.3 	"/>
	<polygon class="st6" points="333.3,558.4 338.3,555.5 338.3,541.3 333.3,544.2 	"/>
	<polygon class="st6" points="333.3,643.4 338.3,640.5 338.3,626.3 333.3,629.2 	"/>
	<polygon class="st6" points="333.3,615.1 338.3,612.1 338.3,598 333.3,600.9 	"/>
	<polygon class="st6" points="333.3,657.6 338.3,654.7 333.3,657.6 333.3,671.8 338.3,668.8 333.3,671.8 333.3,685.9 338.3,683 
		333.3,685.9 333.3,700.1 338.3,697.2 333.3,700.1 333.3,714.3 338.3,711.4 333.3,714.3 333.3,728.5 338.3,725.5 333.3,728.5 
		333.3,742.6 338.3,739.7 333.3,742.6 333.3,756.8 338.3,753.9 333.3,756.8 333.3,771 338.3,768 333.3,771 333.3,784.6 338.4,781.6 
		338.3,640.6 338.3,640.5 333.3,643.4 	"/>
	<polygon class="st6" points="333.3,629.2 338.3,626.3 338.3,612.1 333.3,615.1 	"/>
	<polygon class="st6" points="333.3,572.6 338.3,569.6 338.3,555.5 333.3,558.4 	"/>
	<polygon class="st6" points="333.3,586.7 338.3,583.8 338.3,569.6 333.3,572.6 	"/>
	<polygon class="st6" points="333.3,600.9 338.3,598 338.3,583.8 333.3,586.7 	"/>
	<polygon class="st6" points="318.1,496.2 318.1,501.8 323.1,498.9 323.1,484.7 318.1,487.6 	"/>
	<polygon class="st6" points="318.1,538.8 318.1,544.3 323.1,541.4 323.1,527.2 318.1,530.1 	"/>
	<polygon class="st6" points="318.1,524.6 318.1,530.1 323.1,527.2 323.1,513 318.1,516 	"/>
	<polygon class="st6" points="318.1,510.4 318.1,516 323.1,513 323.1,498.9 318.1,501.8 	"/>
	<polygon class="st6" points="318.1,467.9 318.1,473.4 323.1,470.5 323.1,456.3 318.1,459.3 	"/>
	<polygon class="st6" points="323.1,428 323.1,423.8 318.1,426.8 318.1,430.9 	"/>
	<polygon class="st6" points="318.1,439.6 318.1,445.1 323.1,442.2 323.1,428 318.1,430.9 	"/>
	<polygon class="st6" points="318.1,453.7 318.1,459.3 323.1,456.3 323.1,442.2 318.1,445.1 	"/>
	<polygon class="st6" points="318.1,482.1 318.1,487.6 323.1,484.7 323.1,470.5 318.1,473.4 	"/>
	<polygon class="st6" points="323.1,640.6 318.1,643.5 318.1,652.2 318.1,652.2 318.1,657.7 323.1,654.8 318.1,657.7 318.1,671.9 
		323.1,668.9 318.1,671.9 318.1,686 323.1,683.1 318.1,686 318.1,700.2 323.1,697.3 318.1,700.2 318.1,714.4 323.1,711.5 
		318.1,714.4 318.1,728.6 323.1,725.6 318.1,728.6 318.1,742.7 323.1,739.8 318.1,742.7 318.1,756.9 323.1,754 318.1,756.9 
		318.1,771.1 323.1,768.2 318.1,771.1 318.1,785.3 323.1,782.3 318.1,785.3 318.1,793.3 318.1,793.3 318.1,793.3 323.2,790.4 
		323.1,649.3 	"/>
	<polygon class="st6" points="318.1,638 318.1,643.5 323.1,640.6 323.1,626.4 318.1,629.4 	"/>
	<polygon class="st6" points="318.1,623.8 318.1,629.4 323.1,626.4 323.1,612.2 318.1,615.2 	"/>
	<polygon class="st6" points="318.1,552.9 318.1,558.5 323.1,555.6 323.1,541.4 318.1,544.3 	"/>
	<polygon class="st6" points="318.1,581.3 318.1,586.8 323.1,583.9 323.1,569.7 318.1,572.7 	"/>
	<polygon class="st6" points="318.1,609.6 318.1,615.2 323.1,612.2 323.1,598.1 318.1,601 	"/>
	<polygon class="st6" points="318.1,567.1 318.1,572.7 323.1,569.7 323.1,555.6 318.1,558.5 	"/>
	<polygon class="st6" points="318.1,595.5 318.1,601 323.1,598.1 323.1,583.9 318.1,586.8 	"/>
	<polygon class="st6" points="328.2,467.7 328.2,462 323.2,464.9 323.2,479.1 328.2,476.2 	"/>
	<polygon class="st6" points="328.2,496 328.2,490.4 323.2,493.3 323.2,507.5 328.2,504.5 	"/>
	<polygon class="st6" points="328.2,510.2 328.2,504.5 323.2,507.5 323.2,521.6 328.2,518.7 	"/>
	<polygon class="st6" points="328.2,524.4 328.2,518.7 323.2,521.6 323.2,535.8 328.2,532.9 	"/>
	<polygon class="st6" points="328.2,453.5 328.2,447.8 323.2,450.8 323.2,464.9 328.2,462 	"/>
	<polygon class="st6" points="328.2,425.2 328.2,421 328.2,420.8 323.2,423.8 323.2,436.6 328.2,433.7 	"/>
	<polygon class="st6" points="328.2,538.5 328.2,532.9 323.2,535.8 323.2,550 328.2,547.1 	"/>
	<polygon class="st6" points="328.2,439.3 328.2,433.7 323.2,436.6 323.2,450.8 328.2,447.8 	"/>
	<polygon class="st6" points="328.2,481.8 328.2,476.2 323.2,479.1 323.2,493.3 328.2,490.4 	"/>
	<polygon class="st6" points="328.2,552.7 328.2,547.1 323.2,550 323.2,564.2 328.2,561.2 	"/>
	<polygon class="st6" points="328.2,637.8 328.2,632.1 323.2,635 323.2,649.2 328.2,646.3 	"/>
	<polygon class="st6" points="328.2,609.4 328.2,603.7 323.2,606.7 323.2,620.8 328.2,617.9 	"/>
	<polygon class="st6" points="328.2,651.9 328.2,646.3 328.2,646.3 323.2,649.2 323.2,663.4 328.2,660.4 	"/>
	<polygon class="st6" points="328.2,666.1 328.2,660.4 323.2,663.4 323.2,677.5 328.2,674.6 	"/>
	<polygon class="st6" points="328.2,694.4 328.2,688.8 323.2,691.7 323.2,705.9 328.2,703 	"/>
	<polygon class="st6" points="328.2,708.6 328.2,703 323.2,705.9 323.2,720.1 328.2,717.1 	"/>
	<polygon class="st6" points="328.2,722.8 328.2,717.1 323.2,720.1 323.2,734.2 328.2,731.3 	"/>
	<polygon class="st6" points="328.2,680.3 328.2,674.6 323.2,677.5 323.2,691.7 328.2,688.8 	"/>
	<polygon class="st6" points="328.2,737 328.2,731.3 323.2,734.2 323.2,748.4 328.2,745.5 	"/>
	<polygon class="st6" points="328.2,765.3 328.2,759.6 323.2,762.6 323.2,776.8 328.2,773.8 	"/>
	<polygon class="st6" points="328.2,773.8 323.2,776.8 323.2,790.3 328.2,787.4 328.2,779.5 	"/>
	<polygon class="st6" points="328.2,751.1 328.2,745.5 323.2,748.4 323.2,762.6 328.2,759.6 	"/>
	<polygon class="st6" points="328.2,674.6 328.2,680.3 328.2,680.3 328.2,666.1 328.2,666.1 	"/>
	<polygon class="st6" points="328.2,688.8 328.2,694.4 328.2,694.4 328.2,680.3 328.2,680.3 	"/>
	<polygon class="st6" points="328.2,703 328.2,708.6 328.2,708.6 328.2,694.4 328.2,694.4 	"/>
	<polygon class="st6" points="328.2,660.4 328.2,666.1 328.2,666.1 328.2,651.9 328.2,651.9 	"/>
	<polygon class="st6" points="328.2,717.1 328.2,722.8 328.2,722.8 328.2,708.6 328.2,708.6 	"/>
	<polygon class="st6" points="328.2,651.9 328.2,646.3 328.2,651.9 	"/>
	<polygon class="st6" points="328.3,779.5 328.2,779.5 328.2,787.4 328.3,787.4 	"/>
	<polygon class="st6" points="328.2,759.6 328.2,765.3 328.3,765.3 328.2,751.1 328.2,751.1 	"/>
	<polygon class="st6" points="328.2,773.8 328.2,779.5 328.3,779.5 328.3,765.3 328.2,765.3 	"/>
	<polygon class="st6" points="328.2,745.5 328.2,751.1 328.2,751.1 328.2,737 328.2,737 	"/>
	<polygon class="st6" points="328.2,731.3 328.2,737 328.2,737 328.2,722.8 328.2,722.8 	"/>
	<polygon class="st6" points="328.2,623.6 328.2,617.9 323.2,620.8 323.2,635 328.2,632.1 	"/>
	<polygon class="st6" points="328.2,566.9 328.2,561.2 323.2,564.2 323.2,578.3 328.2,575.4 	"/>
	<polygon class="st6" points="328.2,581.1 328.2,575.4 323.2,578.3 323.2,592.5 328.2,589.6 	"/>
	<polygon class="st6" points="328.2,595.2 328.2,589.6 323.2,592.5 323.2,606.7 328.2,603.7 	"/>
	<polygon class="st6" points="308,502.1 308,507.7 313,504.8 313,490.6 308,493.5 	"/>
	<polygon class="st6" points="308,544.6 308,550.2 313,547.3 313,533.1 308,536 	"/>
	<polygon class="st6" points="308,530.5 308,536 313,533.1 313,518.9 308,521.9 	"/>
	<polygon class="st6" points="308,516.3 308,521.9 313,518.9 313,504.8 308,507.7 	"/>
	<polygon class="st6" points="308,473.8 308,479.3 313,476.4 313,462.2 308,465.2 	"/>
	<polygon class="st6" points="313,433.9 313,429.7 308,432.6 308,436.8 	"/>
	<polygon class="st6" points="308,445.4 308,451 313,448.1 313,433.9 308,436.8 	"/>
	<polygon class="st6" points="308,459.6 308,465.2 313,462.2 313,448.1 308,451 	"/>
	<polygon class="st6" points="308,487.9 308,493.5 313,490.6 313,476.4 308,479.3 	"/>
	<polygon class="st6" points="313,646.5 308,649.4 308,658 308,658.1 308,663.6 313,660.7 308,663.6 308,677.8 313,674.8 308,677.8 
		308,691.9 313,689 308,691.9 308,706.1 313,703.2 308,706.1 308,720.3 313,717.3 308,720.3 308,734.5 313,731.5 308,734.5 
		308,748.6 313,745.7 308,748.6 308,762.8 313,759.9 308,762.8 308,777 313,774 308,777 308,791.1 313,788.2 308,791.1 308,799.1 
		308,799.2 308,799.2 313.1,796.3 313,655.2 	"/>
	<polygon class="st6" points="308,643.9 308,649.4 313,646.5 313,632.3 308,635.2 	"/>
	<polygon class="st6" points="308,629.7 308,635.2 313,632.3 313,618.1 308,621.1 	"/>
	<polygon class="st6" points="308,558.8 308,564.4 313,561.4 313,547.3 308,550.2 	"/>
	<polygon class="st6" points="308,587.2 308,592.7 313,589.8 313,575.6 308,578.5 	"/>
	<polygon class="st6" points="308,615.5 308,621.1 313,618.1 313,604 308,606.9 	"/>
	<polygon class="st6" points="308,573 308,578.5 313,575.6 313,561.4 308,564.4 	"/>
	<polygon class="st6" points="308,601.3 308,606.9 313,604 313,589.8 308,592.7 	"/>
	<polygon class="st6" points="318.1,473.4 318.1,467.9 313.1,470.8 313.1,485 318.1,482.1 	"/>
	<polygon class="st6" points="318.1,501.8 318.1,496.2 313.1,499.2 313.1,513.4 318.1,510.4 	"/>
	<polygon class="st6" points="318.1,516 318.1,510.4 313.1,513.4 313.1,527.5 318.1,524.6 	"/>
	<polygon class="st6" points="318.1,530.1 318.1,524.6 313.1,527.5 313.1,541.7 318.1,538.8 	"/>
	<polygon class="st6" points="318.1,459.3 318.1,453.7 313.1,456.7 313.1,470.8 318.1,467.9 	"/>
	<polygon class="st6" points="318.1,430.9 318.1,426.8 318.1,426.7 313.1,429.6 313.1,429.7 313.1,429.7 313.1,442.5 318.1,439.6 	
		"/>
	<polygon class="st6" points="313.1,429.6 313.1,429.6 313.1,429.7 313.1,429.7 	"/>
	<polygon class="st6" points="318.1,544.3 318.1,538.8 313.1,541.7 313.1,555.9 318.1,552.9 	"/>
	<polygon class="st6" points="318.1,445.1 318.1,439.6 313.1,442.5 313.1,456.7 318.1,453.7 	"/>
	<polygon class="st6" points="318.1,487.6 318.1,482.1 313.1,485 313.1,499.2 318.1,496.2 	"/>
	<polygon class="st6" points="318.1,558.5 318.1,552.9 313.1,555.9 313.1,570 318.1,567.1 	"/>
	<polygon class="st6" points="318.1,643.5 318.1,638 313.1,640.9 313.1,655.1 318.1,652.2 	"/>
	<polygon class="st6" points="318.1,615.2 318.1,609.6 313.1,612.6 313.1,626.7 318.1,623.8 	"/>
	<polygon class="st6" points="318.1,686 318.1,680.5 313.1,683.4 313.1,697.6 318.1,694.7 	"/>
	<polygon class="st6" points="318.1,700.2 318.1,694.7 313.1,697.6 313.1,711.8 318.1,708.8 	"/>
	<polygon class="st6" points="318.1,671.9 318.1,666.3 313.1,669.3 313.1,683.4 318.1,680.5 	"/>
	<polygon class="st6" points="318.1,657.7 318.1,652.2 318.1,652.2 313.1,655.1 313.1,669.3 318.1,666.3 	"/>
	<polygon class="st6" points="318.1,771.1 318.1,765.5 313.1,768.5 313.1,782.6 318.1,779.7 	"/>
	<polygon class="st6" points="318.1,779.7 313.1,782.6 313.1,796.2 318.1,793.3 318.1,785.3 	"/>
	<polygon class="st6" points="318.1,714.4 318.1,708.8 313.1,711.8 313.1,725.9 318.1,723 	"/>
	<polygon class="st6" points="318.1,756.9 318.1,751.4 313.1,754.3 313.1,768.5 318.1,765.5 	"/>
	<polygon class="st6" points="318.1,728.6 318.1,723 313.1,725.9 313.1,740.1 318.1,737.2 	"/>
	<polygon class="st6" points="318.1,742.7 318.1,737.2 313.1,740.1 313.1,754.3 318.1,751.4 	"/>
	<polygon class="st6" points="318.1,737.2 318.1,742.7 318.1,742.7 318.1,728.6 318.1,728.6 	"/>
	<polygon class="st6" points="318.1,751.4 318.1,756.9 318.1,756.9 318.1,742.7 318.1,742.7 	"/>
	<polygon class="st6" points="318.1,779.7 318.1,785.3 318.1,785.3 318.1,771.1 318.1,771.1 	"/>
	<polygon class="st6" points="318.1,765.5 318.1,771.1 318.1,771.1 318.1,756.9 318.1,756.9 	"/>
	<polygon class="st6" points="318.1,657.7 318.1,652.2 318.1,657.7 	"/>
	<polygon class="st6" points="318.1,680.5 318.1,686 318.1,686 318.1,671.9 318.1,671.9 	"/>
	<polygon class="st6" points="318.1,666.3 318.1,671.9 318.1,671.9 318.1,657.7 318.1,657.7 	"/>
	<polygon class="st6" points="318.1,708.8 318.1,714.4 318.1,714.4 318.1,700.2 318.1,700.2 	"/>
	<polygon class="st6" points="318.1,694.7 318.1,700.2 318.1,700.2 318.1,686 318.1,686 	"/>
	<polygon class="st6" points="318.1,723 318.1,728.6 318.1,728.6 318.1,714.4 318.1,714.4 	"/>
	<polygon class="st6" points="318.1,785.3 318.1,785.3 318.1,793.3 318.1,793.3 	"/>
	<polygon class="st6" points="318.1,629.4 318.1,623.8 313.1,626.7 313.1,640.9 318.1,638 	"/>
	<polygon class="st6" points="318.1,572.7 318.1,567.1 313.1,570 313.1,584.2 318.1,581.3 	"/>
	<polygon class="st6" points="318.1,586.8 318.1,581.3 313.1,584.2 313.1,598.4 318.1,595.5 	"/>
	<polygon class="st6" points="318.1,601 318.1,595.5 313.1,598.4 313.1,612.6 318.1,609.6 	"/>
	<polygon class="st6" points="302.9,496.5 297.9,499.4 297.9,513.6 302.9,510.6 	"/>
	<polygon class="st6" points="302.9,539 297.9,541.9 297.9,556.1 302.9,553.1 	"/>
	<polygon class="st6" points="302.9,524.8 297.9,527.7 297.9,541.9 302.9,539 	"/>
	<polygon class="st6" points="302.9,510.6 297.9,513.6 297.9,527.7 302.9,524.8 	"/>
	<polygon class="st6" points="302.9,468.1 297.9,471 297.9,485.2 302.9,482.3 	"/>
	<polygon class="st6" points="302.9,435.6 297.9,438.5 297.9,442.7 302.9,439.8 	"/>
	<polygon class="st6" points="302.9,439.8 297.9,442.7 297.9,456.9 302.9,453.9 	"/>
	<polygon class="st6" points="302.9,453.9 297.9,456.9 297.9,471 302.9,468.1 	"/>
	<polygon class="st6" points="302.9,482.3 297.9,485.2 297.9,499.4 302.9,496.5 	"/>
	<polygon class="st6" points="302.9,652.4 297.9,655.3 297.9,669.5 302.9,666.5 297.9,669.5 297.9,683.6 302.9,680.7 297.9,683.6 
		297.9,697.8 302.9,694.9 297.9,697.8 297.9,712 302.9,709 297.9,712 297.9,726.2 302.9,723.2 297.9,726.2 297.9,740.3 302.9,737.4 
		297.9,740.3 297.9,754.5 302.9,751.6 297.9,754.5 297.9,768.7 302.9,765.7 297.9,768.7 297.9,782.8 302.9,779.9 297.9,782.8 
		297.9,797 302.9,794.1 297.9,797 297.9,805.1 302.9,802.1 302.9,661.1 	"/>
	<polygon class="st6" points="302.9,638.2 297.9,641.1 297.9,655.3 302.9,652.4 	"/>
	<polygon class="st6" points="302.9,624 297.9,626.9 297.9,641.1 302.9,638.2 	"/>
	<polygon class="st6" points="302.9,553.1 297.9,556.1 297.9,570.2 302.9,567.3 	"/>
	<polygon class="st6" points="302.9,581.5 297.9,584.4 297.9,598.6 302.9,595.7 	"/>
	<polygon class="st6" points="302.9,609.8 297.9,612.8 297.9,626.9 302.9,624 	"/>
	<polygon class="st6" points="302.9,567.3 297.9,570.2 297.9,584.4 302.9,581.5 	"/>
	<polygon class="st6" points="302.9,595.7 297.9,598.6 297.9,612.8 302.9,609.8 	"/>
	<polygon class="st6" points="308,479.3 308,473.8 302.9,476.7 302.9,490.9 308,487.9 	"/>
	<polygon class="st6" points="308,507.7 308,502.1 302.9,505 302.9,519.2 308,516.3 	"/>
	<polygon class="st6" points="308,521.9 308,516.3 302.9,519.2 302.9,533.4 308,530.5 	"/>
	<polygon class="st6" points="308,536 308,530.5 302.9,533.4 302.9,547.6 308,544.6 	"/>
	<polygon class="st6" points="308,465.2 308,459.6 302.9,462.5 302.9,476.7 308,473.8 	"/>
	<polygon class="st6" points="308,436.8 308,432.6 308,432.6 302.9,435.5 302.9,448.4 308,445.4 	"/>
	<polygon class="st6" points="308,550.2 308,544.6 302.9,547.6 302.9,561.7 308,558.8 	"/>
	<polygon class="st6" points="308,451 308,445.4 302.9,448.4 302.9,462.5 308,459.6 	"/>
	<polygon class="st6" points="308,493.5 308,487.9 302.9,490.9 302.9,505 308,502.1 	"/>
	<polygon class="st6" points="308,564.4 308,558.8 302.9,561.7 302.9,575.9 308,573 	"/>
	<polygon class="st6" points="308,649.4 308,643.9 302.9,646.8 302.9,661 308,658 	"/>
	<polygon class="st6" points="308,621.1 308,615.5 302.9,618.4 302.9,632.6 308,629.7 	"/>
	<polygon class="st6" points="308,720.3 308,714.7 302.9,717.6 302.9,731.8 308,728.9 	"/>
	<polygon class="st6" points="308,691.9 308,686.4 302.9,689.3 302.9,703.5 308,700.5 	"/>
	<polygon class="st6" points="308,734.5 308,728.9 302.9,731.8 302.9,746 308,743.1 	"/>
	<polygon class="st6" points="308,677.8 308,672.2 302.9,675.1 302.9,689.3 308,686.4 	"/>
	<polygon class="st6" points="308,762.8 308,757.2 302.9,760.2 302.9,774.3 308,771.4 	"/>
	<polygon class="st6" points="308,748.6 308,743.1 302.9,746 302.9,760.2 308,757.2 	"/>
	<polygon class="st6" points="308,777 308,771.4 302.9,774.3 302.9,788.5 308,785.6 	"/>
	<polygon class="st6" points="308,785.6 302.9,788.5 302.9,802.1 308,799.2 308,791.1 	"/>
	<polygon class="st6" points="308,663.6 308,658.1 308,658 302.9,661 302.9,675.1 308,672.2 	"/>
	<polygon class="st6" points="308,706.1 308,700.5 302.9,703.5 302.9,717.6 308,714.7 	"/>
	<polygon class="st6" points="308,771.4 308,777 308,777 308,762.8 308,762.8 	"/>
	<polygon class="st6" points="308,743.1 308,748.6 308,748.6 308,734.5 308,734.5 	"/>
	<polygon class="st6" points="308,791.1 308,791.1 308,799.2 308,799.1 	"/>
	<polygon class="st6" points="308,785.6 308,791.1 308,791.1 308,777 308,777 	"/>
	<polygon class="st6" points="308,700.5 308,706.1 308,706.1 308,691.9 308,691.9 	"/>
	<polygon class="st6" points="308,757.2 308,762.8 308,762.8 308,748.6 308,748.6 	"/>
	<polygon class="st6" points="308,686.4 308,691.9 308,691.9 308,677.8 308,677.8 	"/>
	<polygon class="st6" points="308,728.9 308,734.5 308,734.5 308,720.3 308,720.3 	"/>
	<polygon class="st6" points="308,672.2 308,677.8 308,677.8 308,663.6 308,663.6 	"/>
	<polygon class="st6" points="308,663.6 308,658.1 308,663.6 	"/>
	<polygon class="st6" points="308,714.7 308,720.3 308,720.3 308,706.1 308,706.1 	"/>
	<polygon class="st6" points="308,635.2 308,629.7 302.9,632.6 302.9,646.8 308,643.9 	"/>
	<polygon class="st6" points="308,578.5 308,573 302.9,575.9 302.9,590.1 308,587.2 	"/>
	<polygon class="st6" points="308,592.7 308,587.2 302.9,590.1 302.9,604.3 308,601.3 	"/>
	<polygon class="st6" points="308,606.9 308,601.3 302.9,604.3 302.9,618.4 308,615.5 	"/>
	<polygon class="st6" points="308,424.5 308,436.8 313,433.9 313,421.6 	"/>
	<polygon class="st6" points="302.9,427.5 297.9,430.4 297.9,438.5 302.9,435.5 	"/>
	<polygon class="st6" points="318.2,418.6 323.2,415.7 323.1,428 318.1,430.9 	"/>
	<polygon class="st6" points="328.3,412.8 333.3,410 333.2,422.2 328.2,425.2 	"/>
	<polygon class="st6" points="338.4,407 343.4,404 343.5,416.2 338.5,419.1 	"/>
	<polygon class="st6" points="348.5,401.1 353.5,398.2 353.6,410.3 348.6,413.3 	"/>
	<polygon class="st6" points="358.6,395.2 363.6,392.3 363.8,404.4 358.7,407.4 	"/>
	<polygon class="st6" points="368.8,389.4 373.7,386.5 373.9,398.7 368.8,401.6 	"/>
</g>
<polygon id="XMLID_3_" class="st7" points="297.8,805.1 379.1,758.2 379,25 297.7,72 "/>
<g>
	<polygon id="XMLID_229_" class="st8" points="290.5,657.3 302.9,664.5 302.9,678.9 290.5,671.7 	"/>
	<polygon id="XMLID_230_" class="st9" points="302.9,664.5 315.4,657.3 315.4,671.7 302.9,678.9 	"/>
	<polygon id="XMLID_234_" class="st8" points="315.4,657.3 317.5,658.5 317.5,672.9 315.4,671.7 	"/>
	<polygon id="XMLID_235_" class="st10" points="317.5,672.9 302.9,681.3 288.4,672.9 290.5,671.7 302.9,678.9 315.4,671.7 	"/>
	<polygon id="XMLID_236_" class="st9" points="290.5,657.3 288.4,658.5 288.4,672.9 290.5,671.7 	"/>
</g>
<g>
	<polygon id="XMLID_11_" class="st8" points="290.5,681.4 302.9,688.6 302.9,703 290.5,695.8 	"/>
	<polygon id="XMLID_10_" class="st9" points="302.9,688.6 315.4,681.4 315.4,695.8 302.9,703 	"/>
	<polygon id="XMLID_9_" class="st8" points="315.4,681.4 317.5,682.6 317.5,697 315.4,695.8 	"/>
	<polygon id="XMLID_8_" class="st10" points="317.5,697 302.9,705.4 288.4,697 290.5,695.8 302.9,703 315.4,695.8 	"/>
	<polygon id="XMLID_2_" class="st9" points="290.5,681.4 288.4,682.6 288.4,697 290.5,695.8 	"/>
</g>
<g>
	<polygon id="XMLID_16_" class="st8" points="290.4,706.7 302.9,713.9 302.9,728.3 290.4,721.1 	"/>
	<polygon id="XMLID_15_" class="st9" points="302.9,713.9 315.4,706.7 315.4,721.1 302.9,728.3 	"/>
	<polygon id="XMLID_14_" class="st8" points="315.4,706.7 317.5,707.9 317.5,722.3 315.4,721.1 	"/>
	<polygon id="XMLID_13_" class="st10" points="317.5,722.3 302.9,730.7 288.3,722.3 290.4,721.1 302.9,728.3 315.4,721.1 	"/>
	<polygon id="XMLID_12_" class="st9" points="290.4,706.7 288.3,707.9 288.3,722.3 290.4,721.1 	"/>
</g>
<g>
	<polygon id="XMLID_21_" class="st8" points="290.4,731.2 302.9,738.4 302.9,752.9 290.4,745.6 	"/>
	<polygon id="XMLID_20_" class="st9" points="302.9,738.4 315.4,731.2 315.4,745.6 302.9,752.9 	"/>
	<polygon id="XMLID_19_" class="st8" points="315.4,731.2 317.5,732.4 317.5,746.8 315.4,745.6 	"/>
	<polygon id="XMLID_18_" class="st10" points="317.5,746.8 302.9,755.3 288.3,746.8 290.4,745.6 302.9,752.9 315.4,745.6 	"/>
	<polygon id="XMLID_17_" class="st9" points="290.4,731.2 288.3,732.4 288.3,746.8 290.4,745.6 	"/>
</g>
<g>
	<polygon id="XMLID_41_" class="st8" points="290.4,299.2 302.9,306.5 302.9,320.9 290.4,313.7 	"/>
	<polygon id="XMLID_40_" class="st9" points="302.9,306.5 315.4,299.2 315.4,313.7 302.9,320.9 	"/>
	<polygon id="XMLID_39_" class="st8" points="315.4,299.2 317.5,300.4 317.5,314.9 315.4,313.7 	"/>
	<polygon id="XMLID_38_" class="st10" points="317.5,314.9 302.9,323.3 288.3,314.9 290.4,313.7 302.9,320.9 315.4,313.7 	"/>
	<polygon id="XMLID_37_" class="st9" points="290.4,299.2 288.3,300.4 288.3,314.9 290.4,313.7 	"/>
</g>
<g>
	<polygon id="XMLID_36_" class="st8" points="290.4,323.4 302.9,330.6 302.9,345 290.4,337.8 	"/>
	<polygon id="XMLID_35_" class="st9" points="302.9,330.6 315.4,323.4 315.4,337.8 302.9,345 	"/>
	<polygon id="XMLID_34_" class="st8" points="315.4,323.4 317.5,324.6 317.5,339 315.4,337.8 	"/>
	<polygon id="XMLID_33_" class="st10" points="317.5,339 302.9,347.4 288.3,339 290.4,337.8 302.9,345 315.4,337.8 	"/>
	<polygon id="XMLID_32_" class="st9" points="290.4,323.4 288.3,324.6 288.3,339 290.4,337.8 	"/>
</g>
<g>
	<polygon id="XMLID_31_" class="st8" points="290.4,348.7 302.9,355.9 302.9,370.3 290.4,363.1 	"/>
	<polygon id="XMLID_30_" class="st9" points="302.9,355.9 315.4,348.7 315.4,363.1 302.9,370.3 	"/>
	<polygon id="XMLID_29_" class="st8" points="315.4,348.7 317.4,349.9 317.4,364.3 315.4,363.1 	"/>
	<polygon id="XMLID_28_" class="st10" points="317.4,364.3 302.9,372.7 288.3,364.3 290.4,363.1 302.9,370.3 315.4,363.1 	"/>
	<polygon id="XMLID_27_" class="st9" points="290.4,348.7 288.3,349.9 288.3,364.3 290.4,363.1 	"/>
</g>
<g>
	<polygon id="XMLID_26_" class="st8" points="290.4,373.2 302.9,380.4 302.9,394.8 290.4,387.6 	"/>
	<polygon id="XMLID_25_" class="st9" points="302.9,380.4 315.4,373.2 315.4,387.6 302.9,394.8 	"/>
	<polygon id="XMLID_24_" class="st8" points="315.4,373.2 317.4,374.4 317.4,388.8 315.4,387.6 	"/>
	<polygon id="XMLID_23_" class="st10" points="317.4,388.8 302.9,397.2 288.3,388.8 290.4,387.6 302.9,394.8 315.4,387.6 	"/>
	<polygon id="XMLID_22_" class="st9" points="290.4,373.2 288.3,374.4 288.3,388.8 290.4,387.6 	"/>
</g>
</svg>
